<svg id="图层_1" data-name="图层 1" xmlns="http://www.w3.org/2000/svg" xmlns:xlink="http://www.w3.org/1999/xlink" viewBox="0 0 2048 1080"><defs><style>.cls-1,.cls-6{fill:none;}.cls-2{fill:#457dc0;}.cls-3{opacity:0.2;}.cls-4{clip-path:url(#clip-path);}.cls-5{fill:#fff;}.cls-6{stroke:#fff;stroke-miterlimit:10;stroke-width:1.5px;}</style><clipPath id="clip-path"><rect class="cls-1" width="2048" height="1079.7"/></clipPath></defs><title>登录界面-背景图</title><rect class="cls-2" width="2048" height="1079.7"/><g class="cls-3"><g class="cls-4"><path class="cls-5" d="M477.83,128.07A45.95,45.95,0,1,1,523.78,174,46,46,0,0,1,477.83,128.07Zm3,0a43,43,0,1,0,43-43A43,43,0,0,0,480.79,128.07Z"/><path class="cls-5" d="M471.27,128.07a52.5,52.5,0,1,1,52.5,52.5A52.56,52.56,0,0,1,471.27,128.07Zm1.48,0a51,51,0,1,0,51-51A51.08,51.08,0,0,0,472.75,128.07Z"/><path class="cls-5" d="M319.32,146.13a25,25,0,1,1,25,25A25,25,0,0,1,319.32,146.13Zm1.48,0a23.52,23.52,0,1,0,23.52-23.52A23.55,23.55,0,0,0,320.8,146.13Z"/><path class="cls-5" d="M474.6,272.17a21.61,21.61,0,1,1,21.61,21.61A21.63,21.63,0,0,1,474.6,272.17Zm1.48,0A20.13,20.13,0,1,0,496.21,252,20.16,20.16,0,0,0,476.08,272.17Z"/><path class="cls-5" d="M442.83,9.84a27.09,27.09,0,1,1,27.09,27.09A27.12,27.12,0,0,1,442.83,9.84Zm1.48,0a25.61,25.61,0,1,0,25.61-25.61A25.64,25.64,0,0,0,444.31,9.84Z"/><path class="cls-5" d="M666.85,214.71a33.86,33.86,0,1,1,33.86,33.86A33.9,33.9,0,0,1,666.85,214.71Zm3,0a30.91,30.91,0,1,0,30.91-30.91A30.94,30.94,0,0,0,669.81,214.71Z"/><path class="cls-5" d="M519.23,394.38a33.86,33.86,0,1,1,33.86,33.86A33.9,33.9,0,0,1,519.23,394.38Zm3,0a30.91,30.91,0,1,0,30.91-30.91A30.94,30.94,0,0,0,522.18,394.38Z"/><path class="cls-5" d="M795.76,169a21.48,21.48,0,1,1,21.48,21.48A21.5,21.5,0,0,1,795.76,169Zm1.48,0a20,20,0,1,0,20-20A20,20,0,0,0,797.23,169Z"/><path class="cls-5" d="M816.3,336.32a26.49,26.49,0,1,1,26.49,26.49A26.52,26.52,0,0,1,816.3,336.32Zm1.48,0a25,25,0,1,0,25-25A25,25,0,0,0,817.78,336.32Z"/><path class="cls-5" d="M785.83,168.68a31.68,31.68,0,1,1,31.68,31.68A31.71,31.71,0,0,1,785.83,168.68Zm1.11,0a30.57,30.57,0,1,0,30.57-30.57A30.6,30.6,0,0,0,786.94,168.68Z"/><path class="cls-5" d="M622.91,317.53a26.53,26.53,0,1,1,26.53,26.53A26.56,26.56,0,0,1,622.91,317.53Zm1.11,0a25.42,25.42,0,1,0,25.42-25.42A25.45,25.45,0,0,0,624,317.53Z"/><path class="cls-5" d="M392.35,362a26.53,26.53,0,1,1,26.53,26.53A26.56,26.56,0,0,1,392.35,362Zm1.11,0a25.42,25.42,0,1,0,25.42-25.42A25.45,25.45,0,0,0,393.46,362Z"/><path class="cls-5" d="M257.94,431.9a31.62,31.62,0,1,1,31.62,31.62A31.65,31.65,0,0,1,257.94,431.9Zm1.11,0a30.51,30.51,0,1,0,30.51-30.51A30.54,30.54,0,0,0,259,431.9Z"/><path class="cls-5" d="M553.09,440.76a46.38,46.38,0,0,0,7.33-92.18l-.17,1.09a45.27,45.27,0,1,1-33.05,7.57l-.63-.91a46.38,46.38,0,0,0,26.53,84.43Z"/><path class="cls-5" d="M700.36,394.38a22.23,22.23,0,1,1,22.23,22.23A22.26,22.26,0,0,1,700.36,394.38Zm1.11,0a21.12,21.12,0,1,0,21.12-21.12A21.15,21.15,0,0,0,701.47,394.38Z"/><path class="cls-5" d="M243.07,42.88a32.69,32.69,0,1,1,32.69,32.69A32.73,32.73,0,0,1,243.07,42.88Zm1.48,0a31.22,31.22,0,1,0,31.22-31.22A31.25,31.25,0,0,0,244.55,42.88Z"/><path class="cls-5" d="M163.55,214.56a26.93,26.93,0,1,1,26.93,26.93A27,27,0,0,1,163.55,214.56Zm1.48,0a25.45,25.45,0,1,0,25.45-25.45A25.48,25.48,0,0,0,165,214.56Z"/><path class="cls-5" d="M9.67,452.83A26.93,26.93,0,1,1,36.6,479.76,27,27,0,0,1,9.67,452.83Zm1.48,0A25.45,25.45,0,1,0,36.6,427.37,25.48,25.48,0,0,0,11.15,452.83Z"/><path class="cls-5" d="M103.43,530.6a21.69,21.69,0,1,1,21.69,21.69A21.72,21.72,0,0,1,103.43,530.6Zm1.48,0a20.21,20.21,0,1,0,20.22-20.22A20.24,20.24,0,0,0,104.91,530.6Z"/><path class="cls-5" d="M523.78,219.36a91.33,91.33,0,0,0,59-21.61l-.48-.56A90.56,90.56,0,1,1,475,51.8l-.4-.62a91.3,91.3,0,0,0,49.22,168.19Z"/><path class="cls-5" d="M603.42,172.72A91.35,91.35,0,0,0,506.74,38.37l.14.73a90.59,90.59,0,0,1,95.91,133.26Z"/><path class="cls-5" d="M523.78,197.87a69.33,69.33,0,0,0,27.57-5.66l-.44-1a68.73,68.73,0,0,1-95.83-63.13H454A69.88,69.88,0,0,0,523.78,197.87Z"/><path class="cls-5" d="M458.85,105.58A68.71,68.71,0,0,1,569.4,76.72l.74-.83A69.82,69.82,0,0,0,457.8,105.21Z"/><path class="cls-5" d="M578.36,171.59a69.91,69.91,0,0,0,11.15-67.06l-1,.37a68.8,68.8,0,0,1-11,66Z"/><path class="cls-5" d="M580.2,154.06a62.32,62.32,0,0,0,2.05-46.94l-1,.37a61.22,61.22,0,0,1-2,46.1Z"/><path class="cls-5" d="M523.78,190.18a61.6,61.6,0,0,0,25.75-5.57l-.46-1a61,61,0,1,1,23.34-92.35l.88-.67a62.11,62.11,0,1,0-49.52,99.6Z"/><path class="cls-5" d="M47.08,146.93h0A32.71,32.71,0,1,1,71.26,157.6,32.71,32.71,0,0,1,47.08,146.93Zm4.17-44a29.72,29.72,0,1,0,21.4-7.71q-.72,0-1.43,0A29.51,29.51,0,0,0,51.24,103Z"/><path class="cls-5" d="M39.78,153.57h0a42.59,42.59,0,1,1,31.48,13.89A42.59,42.59,0,0,1,39.78,153.57Zm3.83-59a41.11,41.11,0,0,0-2.74,58h0a41.06,41.06,0,1,0,32.3-68.65q-1,0-2,0A40.77,40.77,0,0,0,43.61,94.56Z"/><path class="cls-5" d="M71.32,194.74a69.89,69.89,0,0,0,63.49-40.92l-1-.46a68.71,68.71,0,0,1-113.36,17.8l-.82.75A69.35,69.35,0,0,0,68,194.66C69.08,194.71,70.21,194.74,71.32,194.74Z"/><path class="cls-5" d="M7.07,152.43l1-.44A68.71,68.71,0,0,1,70.43,56.24V55.14a69.82,69.82,0,0,0-63.35,97.3Z"/><path class="cls-5" d="M139.8,120.46l1.11-.07A69.92,69.92,0,0,0,104,63.28l-.52,1a68.81,68.81,0,0,1,36.3,56.2Z"/><path class="cls-5" d="M129.41,106.51l1.06-.33a62.32,62.32,0,0,0-30.07-36.1l-.52,1a61.22,61.22,0,0,1,29.53,35.46Z"/><path class="cls-5" d="M71.32,187a62.17,62.17,0,0,0,57-37.63l-1-.44A61,61,0,1,1,82.43,65l.2-1.09A62.11,62.11,0,1,0,68.32,187C69.32,187,70.32,187,71.32,187Z"/><path class="cls-5" d="M136.71,418.27a33.63,33.63,0,0,1-23.45-11h0a33.85,33.85,0,1,1,25.08,11.07C137.8,418.31,137.26,418.3,136.71,418.27Zm-19.2-56.68a30.91,30.91,0,1,0,22.25-8c-.5,0-1,0-1.49,0A30.68,30.68,0,0,0,117.51,361.59Z"/><path class="cls-5" d="M136.23,428.52a44,44,0,1,1,2.13.05C137.65,428.57,136.94,428.56,136.23,428.52ZM109.6,352.91a42.64,42.64,0,1,0,30.71-11.06q-1,0-2.05,0A42.34,42.34,0,0,0,109.6,352.91Z"/><path class="cls-5" d="M138.3,467.36a81,81,0,0,0,73.57-47.41l-1-.46A79.8,79.8,0,0,1,79.2,440.16l-.82.74a80.36,80.36,0,0,0,56,26.36Q136.35,467.36,138.3,467.36Z"/><path class="cls-5" d="M63.84,418.34l1-.44a79.8,79.8,0,0,1,72.4-111.2v-1.11A80.91,80.91,0,0,0,63.84,418.34Z"/><path class="cls-5" d="M217.82,381.28l1.11-.07A81,81,0,0,0,176.19,315l-.52,1a79.91,79.91,0,0,1,42.15,65.26Z"/><path class="cls-5" d="M187.94,368.73l1.06-.33a53.36,53.36,0,0,0-25.74-30.9l-.52,1a52.24,52.24,0,0,1,25.2,30.26Z"/><path class="cls-5" d="M138.33,437.59a53.16,53.16,0,0,0,48.85-32.18l-1-.44a52.06,52.06,0,1,1-38.31-71.69l.2-1.09a53.15,53.15,0,1,0-9.72,105.4Z"/><circle class="cls-5" cx="455" cy="137.84" r="3.81"/><circle class="cls-5" cx="492.31" cy="65.25" r="3.81"/><circle class="cls-5" cx="566.52" cy="99.23" r="3.81"/><circle class="cls-5" cx="586.83" cy="158.89" r="3.81"/><circle class="cls-5" cx="512" cy="196.92" r="3.81"/><circle class="cls-5" cx="411.85" cy="141.91" r="4.3"/><circle class="cls-5" cx="485.92" cy="48.81" r="4.3"/><circle class="cls-5" cx="612.35" cy="67.42" r="4.3"/><circle class="cls-5" cx="629.45" cy="181.45" r="4.45"/><circle class="cls-5" cx="507.96" cy="224.59" r="4.53"/><rect class="cls-5" x="485.48" y="32.87" width="1.48" height="33.52" transform="translate(15.19 180.03) rotate(-21.3)"/><rect class="cls-5" x="368.37" y="141.28" width="86.82" height="1.48" transform="translate(-11.77 40.36) rotate(-5.53)"/><rect class="cls-5" x="558.06" y="71.14" width="96.96" height="1.48" transform="matrix(0.83, -0.56, 0.56, 0.83, 65.26, 354.84)"/><rect class="cls-5" x="628.52" y="132.51" width="1.48" height="94.6" transform="translate(189.98 664.92) rotate(-63.79)"/><rect class="cls-5" x="521.07" y="287.53" width="1.11" height="81.57" transform="translate(-90.69 257.94) rotate(-25.63)"/><rect class="cls-5" x="480.19" y="223.37" width="55.05" height="1.48" transform="matrix(0.16, -0.99, 0.99, 0.16, 207.3, 690.74)"/><rect class="cls-5" x="-77.45" y="205.23" width="118.24" height="1.11" transform="translate(-141.9 40.21) rotate(-41.83)"/><circle class="cls-5" cx="25.72" cy="166.36" r="3.01"/><circle class="cls-5" cx="113.5" cy="129.93" r="3.51"/><circle class="cls-5" cx="119.41" cy="162.85" r="3.51"/><circle class="cls-5" cx="142.44" cy="177.4" r="4.25"/><circle class="cls-5" cx="206.84" cy="137.69" r="4.25"/><rect class="cls-5" x="216.04" y="34.43" width="1.48" height="207.2" transform="translate(62.24 343.36) rotate(-85.52)"/><rect class="cls-5" x="306.99" y="66.46" width="1.48" height="68.88" transform="translate(-5.98 181.29) rotate(-32.53)"/><rect class="cls-5" x="292.21" y="206.56" width="77" height="1.48" transform="translate(69.26 497.1) rotate(-80.02)"/><rect class="cls-5" x="250.98" y="345.46" width="112.3" height="1.48" transform="translate(-100.48 565.36) rotate(-76.69)"/><rect class="cls-5" x="419.93" y="135.14" width="1.48" height="152.34" transform="translate(-10.59 400.06) rotate(-50.31)"/><rect class="cls-5" x="570.84" y="232.07" width="1.48" height="114.18" transform="matrix(0.3, -0.95, 0.95, 0.3, 125.79, 749.15)"/><rect class="cls-5" x="570.8" y="352.67" width="65" height="1.48" transform="translate(-91.98 427.28) rotate(-36.43)"/><rect class="cls-5" x="728" y="188.33" width="72.23" height="1.48" transform="translate(-20.11 256.96) rotate(-18.85)"/><rect class="cls-5" x="826.87" y="188.82" width="1.48" height="123.09" transform="translate(-30.29 142.49) rotate(-9.66)"/><rect class="cls-5" x="776" y="209.9" width="1.48" height="129.45" transform="translate(56.29 674.24) rotate(-48.49)"/><rect class="cls-5" x="745.99" y="262.49" width="1.48" height="143.82" transform="translate(320.27 1032.65) rotate(-82.71)"/><rect class="cls-5" x="687.01" y="328.03" width="1.48" height="58.49" transform="translate(-54.35 580.72) rotate(-44.21)"/><rect class="cls-5" x="642.88" y="267.15" width="56.81" height="1.48" transform="translate(122.32 738.02) rotate(-62.33)"/><rect class="cls-5" x="535.74" y="451.65" width="182.57" height="1.48" transform="translate(-137.62 337.81) rotate(-27.29)"/><rect class="cls-5" x="585.47" y="393.64" width="115.44" height="1.48"/><rect class="cls-5" x="508.85" y="453.94" width="59.31" height="1.48" transform="translate(-35.99 862.93) rotate(-75.57)"/><rect class="cls-5" x="467.85" y="372.99" width="1.48" height="134.18" transform="translate(-169.42 361.43) rotate(-36.18)"/><rect class="cls-5" x="483.43" y="331.13" width="1.48" height="80.97" transform="translate(7.84 753.23) rotate(-76.21)"/><rect class="cls-5" x="419.82" y="311.52" width="72.53" height="1.48" transform="translate(-75.84 462.53) rotate(-50.17)"/><rect class="cls-5" x="410.87" y="206.27" width="1.48" height="127.52" transform="translate(128.07 672.45) rotate(-88.1)"/><rect class="cls-5" x="310.64" y="393.64" width="89.06" height="1.48" transform="translate(-147.06 222.77) rotate(-29.13)"/><rect class="cls-5" x="750.94" y="27.04" width="1.48" height="148.48" transform="translate(172.84 591.41) rotate(-47.93)"/><rect class="cls-5" x="687.75" y="52.15" width="1.48" height="129.81" transform="translate(-9.23 86.98) rotate(-7.18)"/><rect class="cls-5" x="306.7" y="24.59" width="137.89" height="1.48" transform="translate(1.22 64.78) rotate(-9.87)"/><rect class="cls-5" x="277.69" y="-10.01" width="59.26" height="1.48" transform="matrix(0.64, -0.77, 0.77, 0.64, 117.95, 232.95)"/><rect class="cls-5" x="209.77" y="181.13" width="119.98" height="1.48" transform="translate(-43.97 95.74) rotate(-18.64)"/><polygon class="cls-5" points="182.11 355.3 286.99 283.05 286.15 281.83 181.27 354.08 182.11 355.3"/><rect class="cls-5" x="117.47" y="286.33" width="99.84" height="1.48" transform="translate(-155.6 365.2) rotate(-73.35)"/><rect class="cls-5" x="19.76" y="247.52" width="1.48" height="157.6" transform="translate(-283.99 207.19) rotate(-65.04)"/><circle class="cls-5" cx="92.29" cy="360.44" r="4.47"/><circle class="cls-5" cx="69.88" cy="427.83" r="4.47"/><circle class="cls-5" cx="181.05" cy="355.32" r="3.81"/><circle class="cls-5" cx="232.58" cy="319.34" r="4.94"/><circle class="cls-5" cx="129.48" cy="466.8" r="4.47"/><circle class="cls-5" cx="224.73" cy="409.36" r="4.47"/><circle class="cls-5" cx="132.43" cy="427.83" r="3.6"/><circle class="cls-5" cx="187.36" cy="402.81" r="3.6"/><circle class="cls-5" cx="203.18" cy="340.1" r="3.6"/><rect class="cls-5" x="89.91" y="469.99" width="78.49" height="1.11" transform="translate(-350.54 559.91) rotate(-85.2)"/><rect class="cls-5" x="55.72" y="431.58" width="15.47" height="1.11" transform="translate(-229.78 108.44) rotate(-33.82)"/><rect class="cls-5" x="224.14" y="371.66" width="1.48" height="76.32" transform="translate(-219.28 555.58) rotate(-79.41)"/><rect class="cls-5" x="79.44" y="460.82" width="1.48" height="71.42" transform="translate(-345.12 228.03) rotate(-48.56)"/><path class="cls-5" d="M285.07,278.11A13.18,13.18,0,0,1,299.75,265a17.88,17.88,0,0,1,34.05-10.37,11.83,11.83,0,0,1,16.12,11c0,.39,0,.78-.06,1.16a12.28,12.28,0,0,1-1,24.52h-52v-.07A13.22,13.22,0,0,1,285.07,278.11Z"/><path class="cls-5" d="M642.58,45.29a10.08,10.08,0,0,1,11.23-10,13.68,13.68,0,0,1,26-7.93,9,9,0,0,1,12.33,8.44c0,.3,0,.59,0,.89a9.39,9.39,0,0,1-.75,18.75H651.64v-.05A10.11,10.11,0,0,1,642.58,45.29Z"/><path class="cls-5" d="M498.59,503.16a9.68,9.68,0,0,1,10.78-9.64,13.13,13.13,0,0,1,25-7.61,8.68,8.68,0,0,1,11.83,8.1c0,.29,0,.57,0,.85a9,9,0,0,1-.72,18H507.28v-.05A9.7,9.7,0,0,1,498.59,503.16Z"/><circle class="cls-5" cx="817.5" cy="163.81" r="4.8"/><path class="cls-5" d="M810.41,169.52a9.1,9.1,0,0,0,14.2,0,11.3,11.3,0,0,1,4.23,8.82H806.18A11.3,11.3,0,0,1,810.41,169.52Z"/><circle class="cls-5" cx="496.21" cy="267.31" r="4.8"/><path class="cls-5" d="M489.11,273a9.1,9.1,0,0,0,14.2,0,11.3,11.3,0,0,1,4.23,8.82H484.88A11.3,11.3,0,0,1,489.11,273Z"/><circle class="cls-5" cx="125.13" cy="525.74" r="4.8"/><path class="cls-5" d="M118,531.45a9.1,9.1,0,0,0,14.2,0,11.3,11.3,0,0,1,4.23,8.82H113.8A11.3,11.3,0,0,1,118,531.45Z"/><circle class="cls-5" cx="722.59" cy="389.8" r="4.8"/><path class="cls-5" d="M715.5,395.51a9.1,9.1,0,0,0,14.2,0,11.3,11.3,0,0,1,4.23,8.82H711.26A11.3,11.3,0,0,1,715.5,395.51Z"/><circle class="cls-5" cx="842.8" cy="330.33" r="5.92"/><path class="cls-5" d="M834,337.36a11.22,11.22,0,0,0,17.49,0,13.93,13.93,0,0,1,5.21,10.87H828.83A13.93,13.93,0,0,1,834,337.36Z"/><circle class="cls-5" cx="647.85" cy="310.41" r="5.92"/><path class="cls-5" d="M639.11,317.44a11.22,11.22,0,0,0,17.49,0,13.93,13.93,0,0,1,5.21,10.87H633.89A13.93,13.93,0,0,1,639.11,317.44Z"/><circle class="cls-5" cx="469.92" cy="3.84" r="5.92"/><path class="cls-5" d="M461.17,10.88a11.22,11.22,0,0,0,17.49,0,13.93,13.93,0,0,1,5.21,10.87H456A13.93,13.93,0,0,1,461.17,10.88Z"/><circle class="cls-5" cx="344.32" cy="140.13" r="5.92"/><path class="cls-5" d="M335.57,147.17a11.22,11.22,0,0,0,17.49,0A13.93,13.93,0,0,1,358.28,158H330.36A13.93,13.93,0,0,1,335.57,147.17Z"/><circle class="cls-5" cx="190.48" cy="208.56" r="5.92"/><path class="cls-5" d="M181.74,215.6a11.22,11.22,0,0,0,17.49,0,13.93,13.93,0,0,1,5.21,10.87H176.52A13.93,13.93,0,0,1,181.74,215.6Z"/><circle class="cls-5" cx="288.57" cy="426.31" r="5.92"/><path class="cls-5" d="M279.83,433.34a11.22,11.22,0,0,0,17.49,0,13.93,13.93,0,0,1,5.21,10.87H274.61A13.93,13.93,0,0,1,279.83,433.34Z"/><circle class="cls-5" cx="36.21" cy="446.39" r="5.92"/><path class="cls-5" d="M27.46,453.42a11.22,11.22,0,0,0,17.49,0,13.93,13.93,0,0,1,5.21,10.87H22.25A13.93,13.93,0,0,1,27.46,453.42Z"/><circle class="cls-5" cx="418.87" cy="356" r="5.92"/><path class="cls-5" d="M410.13,363a11.22,11.22,0,0,0,17.49,0,13.93,13.93,0,0,1,5.21,10.87H404.91A13.93,13.93,0,0,1,410.13,363Z"/><circle class="cls-5" cx="709.31" cy="206.71" r="5.98"/><path class="cls-5" d="M700.47,213.81a11.33,11.33,0,0,0,17.67,0,14.07,14.07,0,0,1,5.27,11h-28.2A14.07,14.07,0,0,1,700.47,213.81Z"/><circle class="cls-5" cx="687.45" cy="212.71" r="3.99"/><path class="cls-5" d="M681.55,217.45a7.57,7.57,0,0,0,11.8,0,9.4,9.4,0,0,1,3.52,7.34H678A9.4,9.4,0,0,1,681.55,217.45Z"/><circle class="cls-5" cx="79.83" cy="118.88" r="5.98"/><path class="cls-5" d="M71,126a11.33,11.33,0,0,0,17.67,0,14.07,14.07,0,0,1,5.27,11H65.74A14.07,14.07,0,0,1,71,126Z"/><circle class="cls-5" cx="57.98" cy="124.88" r="3.99"/><path class="cls-5" d="M52.08,129.63a7.57,7.57,0,0,0,11.8,0A9.4,9.4,0,0,1,67.4,137H48.56A9.4,9.4,0,0,1,52.08,129.63Z"/><circle class="cls-5" cx="284.36" cy="36.82" r="5.98"/><path class="cls-5" d="M275.52,43.93a11.33,11.33,0,0,0,17.67,0,14.07,14.07,0,0,1,5.27,11h-28.2A14.07,14.07,0,0,1,275.52,43.93Z"/><circle class="cls-5" cx="262.5" cy="42.82" r="3.99"/><path class="cls-5" d="M256.6,47.57a7.57,7.57,0,0,0,11.8,0,9.4,9.4,0,0,1,3.52,7.34H253.08A9.4,9.4,0,0,1,256.6,47.57Z"/><circle class="cls-5" cx="522.64" cy="122.02" r="5.98"/><path class="cls-5" d="M513.8,129.12a11.33,11.33,0,0,0,17.67,0,14.07,14.07,0,0,1,5.27,11h-28.2A14.07,14.07,0,0,1,513.8,129.12Z"/><circle class="cls-5" cx="500.78" cy="128.02" r="3.99"/><path class="cls-5" d="M494.88,132.76a7.57,7.57,0,0,0,11.8,0,9.4,9.4,0,0,1,3.52,7.34H491.36A9.4,9.4,0,0,1,494.88,132.76Z"/><circle class="cls-5" cx="544.19" cy="128.02" r="3.99"/><path class="cls-5" d="M538.28,132.76a7.57,7.57,0,0,0,11.8,0,9.4,9.4,0,0,1,3.52,7.34H534.77A9.4,9.4,0,0,1,538.28,132.76Z"/><circle class="cls-5" cx="561.68" cy="387.77" r="5.98"/><path class="cls-5" d="M552.84,394.88a11.33,11.33,0,0,0,17.67,0,14.07,14.07,0,0,1,5.27,11h-28.2A14.07,14.07,0,0,1,552.84,394.88Z"/><circle class="cls-5" cx="539.82" cy="393.77" r="3.99"/><path class="cls-5" d="M533.92,398.52a7.57,7.57,0,0,0,11.8,0,9.4,9.4,0,0,1,3.52,7.34H530.4A9.4,9.4,0,0,1,533.92,398.52Z"/><rect class="cls-5" x="144.83" y="148.53" width="1.48" height="62.08" transform="translate(-84.14 205.44) rotate(-57.4)"/><path class="cls-5" d="M1325.35,701a53.75,53.75,0,1,1,53.75-53.75A53.81,53.81,0,0,1,1325.35,701Zm0-104a50.29,50.29,0,1,0,50.29,50.29A50.35,50.35,0,0,0,1325.35,597Z"/><path class="cls-5" d="M1325.35,708.72a61.42,61.42,0,1,1,61.42-61.42A61.49,61.49,0,0,1,1325.35,708.72Zm0-121.11A59.69,59.69,0,1,0,1385,647.3,59.76,59.76,0,0,0,1325.35,587.61Z"/><path class="cls-5" d="M1535.29,697.67a29.24,29.24,0,1,1,29.24-29.24A29.28,29.28,0,0,1,1535.29,697.67Zm0-56.76a27.51,27.51,0,1,0,27.51,27.52A27.55,27.55,0,0,0,1535.29,640.91Z"/><path class="cls-5" d="M1357.6,841.15a25.28,25.28,0,1,1,25.28-25.28A25.31,25.31,0,0,1,1357.6,841.15Zm0-48.83a23.55,23.55,0,1,0,23.55,23.55A23.58,23.58,0,0,0,1357.6,792.32Z"/><path class="cls-5" d="M1388.36,540.68A31.69,31.69,0,1,1,1420,509,31.73,31.73,0,0,1,1388.36,540.68Zm0-61.66a30,30,0,1,0,30,30A30,30,0,0,0,1388.36,479Z"/><path class="cls-5" d="M1118.36,788.27A39.61,39.61,0,1,1,1158,748.66,39.66,39.66,0,0,1,1118.36,788.27Zm0-75.77a36.16,36.16,0,1,0,36.16,36.16A36.2,36.2,0,0,0,1118.36,712.5Z"/><path class="cls-5" d="M1291.06,998.46a39.61,39.61,0,1,1,39.61-39.61A39.66,39.66,0,0,1,1291.06,998.46Zm0-75.77a36.16,36.16,0,1,0,36.16,36.16A36.2,36.2,0,0,0,1291.06,922.68Z"/><path class="cls-5" d="M982,720.26a25.13,25.13,0,1,1,25.13-25.13A25.16,25.16,0,0,1,982,720.26Zm0-48.53a23.4,23.4,0,1,0,23.4,23.4A23.43,23.43,0,0,0,982,671.74Z"/><path class="cls-5" d="M952.15,921.91a31,31,0,1,1,31-31A31,31,0,0,1,952.15,921.91Zm0-60.25a29.26,29.26,0,1,0,29.26,29.26A29.29,29.29,0,0,0,952.15,861.66Z"/><path class="cls-5" d="M981.74,731.86a37.06,37.06,0,1,1,37.06-37.06A37.1,37.1,0,0,1,981.74,731.86Zm0-72.82a35.76,35.76,0,1,0,35.76,35.76A35.8,35.8,0,0,0,981.74,659Z"/><path class="cls-5" d="M1178.35,900a31,31,0,1,1,31-31A31.07,31.07,0,0,1,1178.35,900Zm0-60.77a29.73,29.73,0,1,0,29.73,29.73A29.77,29.77,0,0,0,1178.35,839.2Z"/><path class="cls-5" d="M1448.07,952a31,31,0,1,1,31-31A31.07,31.07,0,0,1,1448.07,952Zm0-60.77A29.73,29.73,0,1,0,1477.81,921,29.77,29.77,0,0,0,1448.07,891.22Z"/><path class="cls-5" d="M1599.36,1039.71a37,37,0,1,1,37-37A37,37,0,0,1,1599.36,1039.71Zm0-72.67a35.69,35.69,0,1,0,35.69,35.69A35.73,35.73,0,0,0,1599.36,967Z"/><path class="cls-5" d="M1291.06,1013.1a54.26,54.26,0,0,1-8.57-107.84l.2,1.28a53,53,0,1,0,38.66,8.86l.74-1.06a54.26,54.26,0,0,1-31,98.76Z"/><path class="cls-5" d="M1092.77,984.85a26,26,0,1,1,26-26A26,26,0,0,1,1092.77,984.85Zm0-50.71a24.71,24.71,0,1,0,24.71,24.71A24.74,24.74,0,0,0,1092.77,934.13Z"/><path class="cls-5" d="M1615.48,585.88a38.25,38.25,0,1,1,38.25-38.25A38.29,38.29,0,0,1,1615.48,585.88Zm0-74.77A36.52,36.52,0,1,0,1652,547.63,36.56,36.56,0,0,0,1615.48,511.12Z"/><path class="cls-5" d="M1715.25,780a31.5,31.5,0,1,1,31.51-31.5A31.54,31.54,0,0,1,1715.25,780Zm0-61.28A29.78,29.78,0,1,0,1745,748.48,29.81,29.81,0,0,0,1715.25,718.7Z"/><path class="cls-5" d="M1895.27,1058.72a31.5,31.5,0,1,1,31.51-31.51A31.54,31.54,0,0,1,1895.27,1058.72Zm0-61.28a29.78,29.78,0,1,0,29.78,29.77A29.81,29.81,0,0,0,1895.27,997.44Z"/><path class="cls-5" d="M2028,856.51A38.53,38.53,0,1,1,2066.55,818,38.58,38.58,0,0,1,2028,856.51Zm0-75.34a36.8,36.8,0,1,0,36.81,36.8A36.85,36.85,0,0,0,2028,781.17Z"/><path class="cls-5" d="M1325.35,754.1a106.85,106.85,0,0,1-69-25.28l.56-.66a105.94,105.94,0,1,0,125.56-170.09l.47-.73a106.81,106.81,0,0,1-57.58,196.75Z"/><path class="cls-5" d="M1232.18,699.53a106.86,106.86,0,0,1,113.11-157.17l-.16.85A106,106,0,0,0,1232.93,699.1Z"/><path class="cls-5" d="M1325.35,729a81.1,81.1,0,0,1-32.26-6.62l.51-1.19a80.41,80.41,0,0,0,112.11-73.85h1.3A81.75,81.75,0,0,1,1325.35,729Z"/><path class="cls-5" d="M1401.31,621A80.38,80.38,0,0,0,1272,587.22l-.86-1a81.68,81.68,0,0,1,131.42,34.31Z"/><path class="cls-5" d="M1261.5,698.21a81.79,81.79,0,0,1-13-78.45l1.22.44a80.48,80.48,0,0,0,12.84,77.2Z"/><path class="cls-5" d="M1259.34,677.7a72.91,72.91,0,0,1-2.4-54.91l1.22.44a71.62,71.62,0,0,0,2.36,53.93Z"/><path class="cls-5" d="M1325.35,720a72.06,72.06,0,0,1-30.13-6.52l.54-1.18a71.37,71.37,0,1,0-27.3-108l-1-.78A72.66,72.66,0,1,1,1325.35,720Z"/><path class="cls-5" d="M1854.73,681.84A38.21,38.21,0,1,1,1883,669.36h0A38.14,38.14,0,0,1,1854.73,681.84Zm.06-73q-.84,0-1.68,0a34.71,34.71,0,1,0,1.68,0Z"/><path class="cls-5" d="M1854.72,693.37a49.74,49.74,0,1,1,36.83-16.25h0A49.66,49.66,0,0,1,1854.72,693.37Zm.08-97.78q-1.15,0-2.32.05A48,48,0,1,0,1890.27,676h0a48,48,0,0,0-35.48-80.37Z"/><path class="cls-5" d="M1854.65,725.29a81.76,81.76,0,0,1-74.27-47.87l1.18-.54a80.38,80.38,0,0,0,132.62,20.83l1,.87a81.13,81.13,0,0,1-56.55,26.61C1857.27,725.26,1856,725.29,1854.65,725.29Z"/><path class="cls-5" d="M1929.82,675.8l-1.19-.51a80.38,80.38,0,0,0-72.93-112V562a81.68,81.68,0,0,1,74.11,113.82Z"/><path class="cls-5" d="M1774.55,638.4l-1.29-.08a81.79,81.79,0,0,1,43.15-66.8l.61,1.14a80.5,80.5,0,0,0-42.46,65.74Z"/><path class="cls-5" d="M1786.7,622.08l-1.24-.39a72.91,72.91,0,0,1,35.18-42.23l.61,1.14a71.62,71.62,0,0,0-34.55,41.48Z"/><path class="cls-5" d="M1854.66,716.29a72.73,72.73,0,0,1-66.71-44l1.19-.51a71.37,71.37,0,1,0,52.52-98.28l-.24-1.27a72.66,72.66,0,1,1,16.74,144C1857,716.26,1855.82,716.29,1854.66,716.29Z"/><path class="cls-5" d="M1776.25,986.83a39.61,39.61,0,1,1,29.34-13h0a39.35,39.35,0,0,1-27.43,12.91C1777.52,986.82,1776.88,986.83,1776.25,986.83Zm.08-75.76c-.58,0-1.16,0-1.74,0a36,36,0,1,0,1.74,0Z"/><path class="cls-5" d="M1776.24,998.84a51.71,51.71,0,1,1,2.49-.06C1777.89,998.82,1777.06,998.84,1776.24,998.84Zm.11-101.51q-1.2,0-2.4.06a49.86,49.86,0,1,0,2.4-.06Z"/><path class="cls-5" d="M1776.3,1044.21a94.74,94.74,0,0,1-86.06-55.47l1.18-.54a93.35,93.35,0,0,0,154,24.19l1,.87a94,94,0,0,1-65.53,30.84Q1778.58,1044.21,1776.3,1044.21Z"/><path class="cls-5" d="M1863.41,986.86l-1.19-.51a93.35,93.35,0,0,0-84.7-130.09V855a94.65,94.65,0,0,1,85.88,131.89Z"/><path class="cls-5" d="M1683.27,943.51l-1.29-.08A94.78,94.78,0,0,1,1732,866l.61,1.14a93.48,93.48,0,0,0-49.31,76.35Z"/><path class="cls-5" d="M1718.23,928.83l-1.24-.39a62.42,62.42,0,0,1,30.11-36.15l.61,1.14a61.12,61.12,0,0,0-29.48,35.4Z"/><path class="cls-5" d="M1776.27,1009.39a62.19,62.19,0,0,1-57.15-37.65l1.19-.51a60.9,60.9,0,1,0,44.82-83.87l-.24-1.28a62.18,62.18,0,1,1,11.37,123.31Z"/><circle class="cls-5" cx="1405.81" cy="658.72" r="4.46"/><circle class="cls-5" cx="1362.17" cy="573.81" r="4.46"/><circle class="cls-5" cx="1275.35" cy="613.56" r="4.46"/><circle class="cls-5" cx="1251.58" cy="683.35" r="4.46"/><circle class="cls-5" cx="1339.13" cy="727.84" r="4.46"/><circle class="cls-5" cx="1456.29" cy="663.48" r="5.03"/><circle class="cls-5" cx="1369.64" cy="554.58" r="5.03"/><circle class="cls-5" cx="1221.73" cy="576.35" r="5.03"/><circle class="cls-5" cx="1201.73" cy="709.74" r="5.2"/><circle class="cls-5" cx="1343.86" cy="760.21" r="5.3"/><rect class="cls-5" x="1349.67" y="554.67" width="39.22" height="1.73" transform="translate(354.25 1629.44) rotate(-68.7)"/><rect class="cls-5" x="1455.5" y="612.83" width="1.73" height="101.57" transform="translate(655.45 2049.23) rotate(-84.47)"/><rect class="cls-5" x="1227.67" y="524.84" width="1.73" height="113.43" transform="translate(55.11 1267.55) rotate(-55.64)"/><rect class="cls-5" x="1146.62" y="706.96" width="110.67" height="1.73" transform="translate(-189.04 603.74) rotate(-26.21)"/><rect class="cls-5" x="1280.16" y="880.91" width="95.43" height="1.3" transform="translate(-41.33 1697.44) rotate(-64.37)"/><rect class="cls-5" x="1343.28" y="727.45" width="1.73" height="64.4" transform="translate(-101.87 218.51) rotate(-8.96)"/><rect class="cls-5" x="1958.89" y="669.05" width="1.3" height="138.32" transform="translate(102.69 1706.13) rotate(-48.17)"/><circle class="cls-5" cx="1908" cy="692.09" r="3.53"/><circle class="cls-5" cx="1955.16" cy="732.66" r="5.32"/><circle class="cls-5" cx="1805.31" cy="649.48" r="4.11"/><circle class="cls-5" cx="1798.4" cy="687.99" r="4.11"/><circle class="cls-5" cx="1771.46" cy="705.01" r="4.97"/><circle class="cls-5" cx="1696.12" cy="658.55" r="4.97"/><rect class="cls-5" x="1563.3" y="658.09" width="242.39" height="1.73" transform="translate(-46.33 133.6) rotate(-4.48)"/><rect class="cls-5" x="1537.8" y="614.65" width="80.58" height="1.73" transform="translate(210.59 1615.11) rotate(-57.47)"/><rect class="cls-5" x="1550.34" y="694.94" width="1.73" height="90.08" transform="translate(-104.74 279.91) rotate(-9.98)"/><rect class="cls-5" x="1577.93" y="836.79" width="1.73" height="131.37" transform="translate(-165.38 387.78) rotate(-13.31)"/><rect class="cls-5" x="1356.86" y="743.81" width="178.22" height="1.73" transform="translate(-142.29 1095.11) rotate(-39.69)"/><rect class="cls-5" x="1202.64" y="834.88" width="133.57" height="1.73" transform="translate(-190.86 414.47) rotate(-17.27)"/><rect class="cls-5" x="1231.46" y="872.89" width="1.73" height="76.04" transform="translate(-232.36 1361.57) rotate(-53.57)"/><rect class="cls-5" x="1043.33" y="676.4" width="1.73" height="84.5" transform="translate(26.78 1474.74) rotate(-71.15)"/><rect class="cls-5" x="897.92" y="789.5" width="143.99" height="1.73" transform="translate(27.94 1613.83) rotate(-80.34)"/><rect class="cls-5" x="953.71" y="817.88" width="151.44" height="1.73" transform="translate(-284.07 887.95) rotate(-41.51)"/><rect class="cls-5" x="980.4" y="887.8" width="168.24" height="1.73" transform="translate(-104.18 142.29) rotate(-7.29)"/><rect class="cls-5" x="1099.32" y="914.57" width="68.42" height="1.73" transform="translate(-313.04 1089.65) rotate(-45.79)"/><rect class="cls-5" x="1151.92" y="777.63" width="1.73" height="66.46" transform="translate(-244.7 628.02) rotate(-27.67)"/><rect class="cls-5" x="1203.71" y="919.91" width="1.73" height="213.58" transform="translate(-260.12 1626.52) rotate(-62.71)"/><rect class="cls-5" x="1118.12" y="957.98" width="135.05" height="1.73"/><rect class="cls-5" x="1307.26" y="994.69" width="1.73" height="69.39" transform="translate(-215.2 358.35) rotate(-14.43)"/><rect class="cls-5" x="1311.43" y="1011.44" width="156.97" height="1.73" transform="translate(-247.64 1536.74) rotate(-53.82)"/><rect class="cls-5" x="1324.33" y="931.35" width="94.72" height="1.73" transform="translate(-182.69 353.88) rotate(-13.79)"/><rect class="cls-5" x="1403.68" y="820.35" width="1.73" height="84.85" transform="translate(-226.7 1099.75) rotate(-39.83)"/><rect class="cls-5" x="1381.98" y="812.5" width="149.18" height="1.73" transform="translate(-26.19 48.78) rotate(-1.9)"/><rect class="cls-5" x="1521.73" y="906.75" width="1.73" height="104.18" transform="matrix(0.49, -0.87, 0.87, 0.49, -56.14, 1822.13)"/><rect class="cls-5" x="971.89" y="615.09" width="173.7" height="1.73" transform="translate(-139.9 868.12) rotate(-42.07)"/><rect class="cls-5" x="1056.74" y="633.55" width="151.85" height="1.73" transform="translate(361.65 1678.9) rotate(-82.82)"/><rect class="cls-5" x="1497.78" y="446.45" width="1.73" height="161.31" transform="translate(722.38 1913.17) rotate(-80.13)"/><rect class="cls-5" x="1410.37" y="471.49" width="102.09" height="1.73" transform="translate(-65.88 634.25) rotate(-23.96)"/><rect class="cls-5" x="1577.71" y="451.97" width="1.73" height="69.32" transform="translate(53.69 1121.79) rotate(-39.75)"/><rect class="cls-5" x="1621.65" y="640.05" width="1.73" height="140.36" transform="translate(431.01 2020.69) rotate(-71.36)"/><polygon class="cls-5" points="1725.05 913.12 1602.36 828.6 1603.34 827.17 1726.03 911.7 1725.05 913.12"/><rect class="cls-5" x="1741.41" y="774.9" width="1.73" height="116.8" transform="translate(-165.69 534.03) rotate(-16.65)"/><rect class="cls-5" x="1821.93" y="878.36" width="184.36" height="1.73" transform="translate(-192.24 889.94) rotate(-24.96)"/><circle class="cls-5" cx="1830.12" cy="919.14" r="5.23"/><circle class="cls-5" cx="1856.34" cy="997.98" r="5.23"/><circle class="cls-5" cx="1726.29" cy="913.14" r="4.46"/><circle class="cls-5" cx="1666" cy="871.05" r="5.78"/><circle class="cls-5" cx="1786.62" cy="1043.57" r="5.23"/><circle class="cls-5" cx="1675.19" cy="976.37" r="5.23"/><circle class="cls-5" cx="1783.16" cy="997.98" r="4.22"/><circle class="cls-5" cx="1718.91" cy="968.7" r="4.22"/><circle class="cls-5" cx="1700.4" cy="895.34" r="4.22"/><rect class="cls-5" x="1786.35" y="1002.03" width="1.3" height="91.82" transform="translate(-81.35 153.06) rotate(-4.8)"/><rect class="cls-5" x="1863.21" y="993.96" width="1.3" height="18.1" transform="translate(-6.82 1993.26) rotate(-56.18)"/><rect class="cls-5" x="1630.38" y="976.04" width="89.29" height="1.73" transform="translate(-150.95 324.32) rotate(-10.59)"/><rect class="cls-5" x="1802.51" y="1077.48" width="83.55" height="1.73" transform="translate(-251.98 1490.52) rotate(-41.44)"/><path class="cls-5" d="M1604.6,822.82a15.42,15.42,0,0,0-17.18-15.36,20.92,20.92,0,0,0-39.83-12.13,13.84,13.84,0,0,0-18.86,12.92c0,.46,0,.91.07,1.35a14.37,14.37,0,0,0,1.15,28.69h60.8v-.08A15.47,15.47,0,0,0,1604.6,822.82Z"/><path class="cls-5" d="M1186.37,550.46a11.79,11.79,0,0,0-13.14-11.75,16,16,0,0,0-30.46-9.28,10.58,10.58,0,0,0-14.42,9.88c0,.35,0,.69.05,1a11,11,0,0,0,.88,21.94h46.5v-.06A11.83,11.83,0,0,0,1186.37,550.46Z"/><path class="cls-5" d="M1566.52,450.88a10.72,10.72,0,0,0-11.94-10.68,14.54,14.54,0,0,0-27.68-8.43,9.62,9.62,0,0,0-13.11,9c0,.32,0,.63,0,.94a10,10,0,0,0,.8,19.94h42.26v-.06A10.75,10.75,0,0,0,1566.52,450.88Z"/><path class="cls-5" d="M1354.82,1086.09a11.32,11.32,0,0,0-12.61-11.28,15.36,15.36,0,0,0-29.24-8.91,10.16,10.16,0,0,0-13.84,9.48c0,.34,0,.67.05,1a10.55,10.55,0,0,0,.84,21.06h44.63v-.06A11.35,11.35,0,0,0,1354.82,1086.09Z"/><circle class="cls-5" cx="981.73" cy="689.11" r="5.62"/><path class="cls-5" d="M990,695.79a10.65,10.65,0,0,1-16.61,0,13.22,13.22,0,0,0-4.95,10.32H995A13.22,13.22,0,0,0,990,695.79Z"/><circle class="cls-5" cx="1357.6" cy="810.18" r="5.62"/><path class="cls-5" d="M1365.9,816.86a10.65,10.65,0,0,1-16.61,0,13.22,13.22,0,0,0-4.95,10.32h26.51A13.22,13.22,0,0,0,1365.9,816.86Z"/><circle class="cls-5" cx="1092.77" cy="953.48" r="5.62"/><path class="cls-5" d="M1101.07,960.16a10.65,10.65,0,0,1-16.61,0,13.22,13.22,0,0,0-4.95,10.32H1106A13.22,13.22,0,0,0,1101.07,960.16Z"/><circle class="cls-5" cx="952.15" cy="883.91" r="6.92"/><path class="cls-5" d="M962.38,892.14a13.12,13.12,0,0,1-20.47,0,16.29,16.29,0,0,0-6.1,12.72h32.67A16.29,16.29,0,0,0,962.38,892.14Z"/><circle class="cls-5" cx="1180.2" cy="860.61" r="6.92"/><path class="cls-5" d="M1190.43,868.84a13.12,13.12,0,0,1-20.47,0,16.29,16.29,0,0,0-6.1,12.72h32.67A16.29,16.29,0,0,0,1190.43,868.84Z"/><circle class="cls-5" cx="1388.36" cy="501.97" r="6.92"/><path class="cls-5" d="M1398.59,510.2a13.12,13.12,0,0,1-20.47,0,16.29,16.29,0,0,0-6.1,12.72h32.67A16.29,16.29,0,0,0,1398.59,510.2Z"/><circle class="cls-5" cx="1535.29" cy="661.41" r="6.92"/><path class="cls-5" d="M1545.52,669.64a13.12,13.12,0,0,1-20.47,0,16.29,16.29,0,0,0-6.1,12.72h32.67A16.29,16.29,0,0,0,1545.52,669.64Z"/><circle class="cls-5" cx="1715.25" cy="741.46" r="6.92"/><path class="cls-5" d="M1725.49,749.69a13.12,13.12,0,0,1-20.47,0,16.29,16.29,0,0,0-6.1,12.72h32.67A16.29,16.29,0,0,0,1725.49,749.69Z"/><circle class="cls-5" cx="1600.5" cy="996.19" r="6.92"/><path class="cls-5" d="M1610.74,1004.42a13.12,13.12,0,0,1-20.47,0,16.29,16.29,0,0,0-6.1,12.72h32.67A16.29,16.29,0,0,0,1610.74,1004.42Z"/><circle class="cls-5" cx="1895.73" cy="1019.68" r="6.92"/><path class="cls-5" d="M1906,1027.91a13.12,13.12,0,0,1-20.47,0,16.29,16.29,0,0,0-6.1,12.72h32.67A16.29,16.29,0,0,0,1906,1027.91Z"/><circle class="cls-5" cx="1448.07" cy="913.94" r="6.92"/><path class="cls-5" d="M1458.31,922.17a13.12,13.12,0,0,1-20.47,0,16.29,16.29,0,0,0-6.1,12.72h32.67A16.29,16.29,0,0,0,1458.31,922.17Z"/><circle class="cls-5" cx="1108.31" cy="739.29" r="6.99"/><path class="cls-5" d="M1118.64,747.6a13.25,13.25,0,0,1-20.67,0,16.45,16.45,0,0,0-6.16,12.85h33A16.45,16.45,0,0,0,1118.64,747.6Z"/><circle class="cls-5" cx="1133.88" cy="746.31" r="4.67"/><path class="cls-5" d="M1140.78,751.86a8.85,8.85,0,0,1-13.81,0,11,11,0,0,0-4.12,8.58h22A11,11,0,0,0,1140.78,751.86Z"/><circle class="cls-5" cx="1844.7" cy="636.55" r="6.99"/><path class="cls-5" d="M1855,644.86a13.25,13.25,0,0,1-20.67,0,16.45,16.45,0,0,0-6.16,12.85h33A16.45,16.45,0,0,0,1855,644.86Z"/><circle class="cls-5" cx="1870.26" cy="643.57" r="4.67"/><path class="cls-5" d="M1877.17,649.12a8.85,8.85,0,0,1-13.81,0,11,11,0,0,0-4.12,8.58h22A11,11,0,0,0,1877.17,649.12Z"/><circle class="cls-5" cx="1605.44" cy="540.55" r="6.99"/><path class="cls-5" d="M1615.77,548.86a13.25,13.25,0,0,1-20.67,0,16.45,16.45,0,0,0-6.16,12.85h33A16.45,16.45,0,0,0,1615.77,548.86Z"/><circle class="cls-5" cx="1631" cy="547.57" r="4.67"/><path class="cls-5" d="M1637.91,553.13a8.85,8.85,0,0,1-13.81,0,11,11,0,0,0-4.12,8.58h22A11,11,0,0,0,1637.91,553.13Z"/><circle class="cls-5" cx="2018.83" cy="810.17" r="6.99"/><path class="cls-5" d="M2029.17,818.48a13.25,13.25,0,0,1-20.67,0,16.45,16.45,0,0,0-6.16,12.85h33A16.45,16.45,0,0,0,2029.17,818.48Z"/><circle class="cls-5" cx="2044.4" cy="817.2" r="4.67"/><path class="cls-5" d="M2051.31,822.75a8.85,8.85,0,0,1-13.81,0,11,11,0,0,0-4.12,8.58h22A11,11,0,0,0,2051.31,822.75Z"/><circle class="cls-5" cx="1326.68" cy="640.22" r="6.99"/><path class="cls-5" d="M1337,648.53a13.25,13.25,0,0,1-20.67,0,16.45,16.45,0,0,0-6.16,12.85h33A16.45,16.45,0,0,0,1337,648.53Z"/><circle class="cls-5" cx="1352.25" cy="647.24" r="4.67"/><path class="cls-5" d="M1359.16,652.79a8.85,8.85,0,0,1-13.81,0,11,11,0,0,0-4.12,8.58h22A11,11,0,0,0,1359.16,652.79Z"/><circle class="cls-5" cx="1301.48" cy="647.24" r="4.67"/><path class="cls-5" d="M1308.38,652.79a8.85,8.85,0,0,1-13.81,0,11,11,0,0,0-4.12,8.58h22A11,11,0,0,0,1308.38,652.79Z"/><circle class="cls-5" cx="1281.01" cy="951.11" r="6.99"/><path class="cls-5" d="M1291.35,959.42a13.25,13.25,0,0,1-20.67,0,16.45,16.45,0,0,0-6.16,12.85h33A16.45,16.45,0,0,0,1291.35,959.42Z"/><circle class="cls-5" cx="1306.58" cy="958.13" r="4.67"/><path class="cls-5" d="M1313.49,963.68a8.85,8.85,0,0,1-13.81,0,11,11,0,0,0-4.12,8.58h22A11,11,0,0,0,1313.49,963.68Z"/><rect class="cls-5" x="1731.49" y="706.68" width="72.63" height="1.73" transform="translate(-102.67 1064.05) rotate(-32.6)"/><path class="cls-5" d="M504.28,672.81a46.13,46.13,0,1,1,46.13,46.13A46.18,46.18,0,0,1,504.28,672.81Zm3,0a43.17,43.17,0,1,0,43.17-43.17A43.21,43.21,0,0,0,507.25,672.81Z"/><path class="cls-5" d="M497.7,672.81a52.72,52.72,0,1,1,52.72,52.72A52.78,52.78,0,0,1,497.7,672.81Zm1.48,0a51.23,51.23,0,1,0,51.23-51.23A51.29,51.29,0,0,0,499.18,672.81Z"/><path class="cls-5" d="M345.13,690.94a25.1,25.1,0,1,1,25.1,25.1A25.13,25.13,0,0,1,345.13,690.94Zm1.48,0a23.62,23.62,0,1,0,23.62-23.62A23.64,23.64,0,0,0,346.61,690.94Z"/><path class="cls-5" d="M501,817.5a21.7,21.7,0,1,1,21.7,21.7A21.72,21.72,0,0,1,501,817.5Zm1.48,0a20.22,20.22,0,1,0,20.22-20.22A20.24,20.24,0,0,0,502.52,817.5Z"/><path class="cls-5" d="M469.14,554.1a27.2,27.2,0,1,1,27.2,27.2A27.23,27.23,0,0,1,469.14,554.1Zm1.48,0a25.72,25.72,0,1,0,25.72-25.72A25.75,25.75,0,0,0,470.62,554.1Z"/><path class="cls-5" d="M694.08,759.81a34,34,0,1,1,34,34A34,34,0,0,1,694.08,759.81Zm3,0a31,31,0,1,0,31-31A31.07,31.07,0,0,0,697,759.81Z"/><path class="cls-5" d="M545.85,940.21a34,34,0,1,1,34,34A34,34,0,0,1,545.85,940.21Zm3,0a31,31,0,1,0,31-31A31.07,31.07,0,0,0,548.81,940.21Z"/><path class="cls-5" d="M823.5,713.87a21.57,21.57,0,1,1,21.57,21.57A21.59,21.59,0,0,1,823.5,713.87Zm1.48,0a20.08,20.08,0,1,0,20.08-20.08A20.11,20.11,0,0,0,825,713.87Z"/><path class="cls-5" d="M844.14,881.91a26.6,26.6,0,1,1,26.6,26.6A26.63,26.63,0,0,1,844.14,881.91Zm1.48,0a25.12,25.12,0,1,0,25.12-25.12A25.14,25.14,0,0,0,845.62,881.91Z"/><path class="cls-5" d="M813.54,713.58a31.81,31.81,0,1,1,31.81,31.81A31.84,31.84,0,0,1,813.54,713.58Zm1.11,0a30.69,30.69,0,1,0,30.69-30.69A30.73,30.73,0,0,0,814.65,713.58Z"/><path class="cls-5" d="M650,863a26.63,26.63,0,1,1,26.63,26.63A26.66,26.66,0,0,1,650,863Zm1.11,0a25.52,25.52,0,1,0,25.52-25.52A25.55,25.55,0,0,0,651.06,863Z"/><path class="cls-5" d="M418.45,907.69a26.63,26.63,0,1,1,26.63,26.63A26.66,26.66,0,0,1,418.45,907.69Zm1.11,0a25.52,25.52,0,1,0,25.52-25.52A25.55,25.55,0,0,0,419.56,907.69Z"/><path class="cls-5" d="M283.49,977.87a31.74,31.74,0,1,1,31.75,31.75A31.78,31.78,0,0,1,283.49,977.87Zm1.11,0a30.63,30.63,0,1,0,30.63-30.63A30.67,30.67,0,0,0,284.61,977.87Z"/><path class="cls-5" d="M579.85,986.77a46.57,46.57,0,0,0,7.36-92.56l-.17,1.1a45.46,45.46,0,1,1-33.19,7.6l-.64-.91a46.57,46.57,0,0,0,26.64,84.77Z"/><path class="cls-5" d="M727.72,940.21A22.32,22.32,0,1,1,750,962.53,22.35,22.35,0,0,1,727.72,940.21Zm1.11,0A21.21,21.21,0,1,0,750,919,21.23,21.23,0,0,0,728.84,940.21Z"/><path class="cls-5" d="M268.57,587.27A32.83,32.83,0,1,1,301.4,620.1,32.87,32.87,0,0,1,268.57,587.27Zm1.48,0a31.34,31.34,0,1,0,31.34-31.34A31.38,31.38,0,0,0,270.05,587.27Z"/><path class="cls-5" d="M188.73,759.65a27,27,0,1,1,27,27A27.07,27.07,0,0,1,188.73,759.65Zm1.48,0a25.56,25.56,0,1,0,25.56-25.56A25.59,25.59,0,0,0,190.21,759.65Z"/><path class="cls-5" d="M34.21,998.89a27,27,0,1,1,27,27A27.07,27.07,0,0,1,34.21,998.89Zm1.48,0a25.56,25.56,0,1,0,25.56-25.56A25.59,25.59,0,0,0,35.7,998.89Z"/><path class="cls-5" d="M128.36,1077a21.78,21.78,0,1,1,21.78,21.78A21.81,21.81,0,0,1,128.36,1077Zm1.48,0a20.3,20.3,0,1,0,20.3-20.3A20.32,20.32,0,0,0,129.84,1077Z"/><path class="cls-5" d="M550.42,764.47a91.71,91.71,0,0,0,59.22-21.7l-.48-.57a90.93,90.93,0,1,1-107.77-146l-.4-.62a91.67,91.67,0,0,0,49.42,168.87Z"/><path class="cls-5" d="M630.39,717.64a91.72,91.72,0,0,0-97.08-134.9l.14.73a91,91,0,0,1,96.3,133.8Z"/><path class="cls-5" d="M550.42,742.9a69.61,69.61,0,0,0,27.69-5.68l-.44-1a69,69,0,0,1-96.22-63.39h-1.11A70.17,70.17,0,0,0,550.42,742.9Z"/><path class="cls-5" d="M485.22,650.23a69,69,0,0,1,111-29l.74-.83a70.11,70.11,0,0,0-112.8,29.45Z"/><path class="cls-5" d="M605.22,716.51a70.2,70.2,0,0,0,11.2-67.33l-1,.38a69.08,69.08,0,0,1-11,66.26Z"/><path class="cls-5" d="M607.07,698.9a62.58,62.58,0,0,0,2.06-47.13l-1,.38a61.47,61.47,0,0,1-2,46.29Z"/><path class="cls-5" d="M550.42,735.17a61.85,61.85,0,0,0,25.86-5.6l-.46-1a61.26,61.26,0,1,1,23.43-92.73l.89-.67a62.36,62.36,0,1,0-49.72,100Z"/><path class="cls-5" d="M71.77,691.75h0a32.85,32.85,0,1,1,24.28,10.71A32.85,32.85,0,0,1,71.77,691.75ZM76,647.59a29.84,29.84,0,1,0,21.49-7.74q-.72,0-1.44,0A29.63,29.63,0,0,0,76,647.59Z"/><path class="cls-5" d="M64.45,698.41h0a42.76,42.76,0,1,1,31.61,13.95A42.76,42.76,0,0,1,64.45,698.41Zm3.85-59.24a41.28,41.28,0,0,0-2.75,58.24h0A41.23,41.23,0,1,0,98,628.48q-1,0-2,0A40.93,40.93,0,0,0,68.29,639.17Z"/><path class="cls-5" d="M96.12,739.75a70.18,70.18,0,0,0,63.75-41.09l-1-.46A69,69,0,0,1,45,716.09l-.82.75a69.63,69.63,0,0,0,48.54,22.84C93.87,739.73,95,739.75,96.12,739.75Z"/><path class="cls-5" d="M31.6,697.27l1-.44a69,69,0,0,1,62.6-96.14v-1.11A70.11,70.11,0,0,0,31.6,697.27Z"/><path class="cls-5" d="M164.87,665.17l1.11-.07a70.2,70.2,0,0,0-37-57.34l-.52,1a69.09,69.09,0,0,1,36.44,56.43Z"/><path class="cls-5" d="M154.44,651.16l1.06-.33a62.58,62.58,0,0,0-30.19-36.25l-.52,1a61.47,61.47,0,0,1,29.65,35.6Z"/><path class="cls-5" d="M96.11,732a62.43,62.43,0,0,0,57.26-37.78l-1-.44a61.26,61.26,0,1,1-45.08-84.36l.2-1.09A62.36,62.36,0,1,0,93.11,732C94.11,732,95.11,732,96.11,732Z"/><path class="cls-5" d="M161.77,964.19a33.77,33.77,0,0,1-23.54-11.08h0a34,34,0,1,1,25.18,11.12C162.87,964.23,162.32,964.22,161.77,964.19Zm-19.28-56.91a31,31,0,1,0,22.34-8c-.5,0-1,0-1.5,0A30.81,30.81,0,0,0,142.49,907.29Z"/><path class="cls-5" d="M161.29,974.49a44.22,44.22,0,1,1,2.14.05C162.71,974.54,162,974.52,161.29,974.49Zm-26.73-75.92a42.82,42.82,0,1,0,30.83-11.1q-1,0-2.06,0A42.51,42.51,0,0,0,134.56,898.57Z"/><path class="cls-5" d="M163.37,1013.48a81.31,81.31,0,0,0,73.87-47.61l-1-.46A80.12,80.12,0,0,1,104,986.18l-.82.75a80.69,80.69,0,0,0,56.24,26.47Q161.42,1013.48,163.37,1013.48Z"/><path class="cls-5" d="M88.61,964.26l1-.44a80.12,80.12,0,0,1,72.7-111.65v-1.11a81.24,81.24,0,0,0-73.71,113.2Z"/><path class="cls-5" d="M243.21,927l1.11-.07a81.35,81.35,0,0,0-42.91-66.44l-.52,1A80.23,80.23,0,0,1,243.21,927Z"/><path class="cls-5" d="M213.21,914.45l1.06-.34a53.58,53.58,0,0,0-25.84-31l-.52,1a52.46,52.46,0,0,1,25.3,30.38Z"/><path class="cls-5" d="M163.4,983.59a53.38,53.38,0,0,0,49-32.31l-1-.44a52.27,52.27,0,1,1-38.47-72l.2-1.1a53.37,53.37,0,1,0-9.76,105.83Z"/><circle class="cls-5" cx="481.36" cy="682.62" r="3.83"/><circle class="cls-5" cx="518.82" cy="609.73" r="3.83"/><circle class="cls-5" cx="593.33" cy="643.86" r="3.83"/><circle class="cls-5" cx="613.73" cy="703.75" r="3.83"/><circle class="cls-5" cx="538.59" cy="741.94" r="3.83"/><circle class="cls-5" cx="438.03" cy="686.7" r="4.32"/><circle class="cls-5" cx="512.4" cy="593.23" r="4.32"/><circle class="cls-5" cx="639.35" cy="611.91" r="4.32"/><circle class="cls-5" cx="656.52" cy="726.41" r="4.46"/><circle class="cls-5" cx="534.53" cy="769.72" r="4.55"/><rect class="cls-5" x="511.97" y="577.22" width="1.48" height="33.66" transform="translate(-180.78 226.85) rotate(-21.3)"/><rect class="cls-5" x="394.38" y="686.08" width="87.18" height="1.48" transform="translate(-64.17 45.42) rotate(-5.53)"/><rect class="cls-5" x="584.84" y="615.64" width="97.35" height="1.48" transform="translate(-237.33 465.07) rotate(-34.36)"/><rect class="cls-5" x="655.59" y="677.27" width="1.48" height="94.99" transform="translate(-283.81 993.43) rotate(-63.79)"/><rect class="cls-5" x="547.7" y="832.92" width="1.11" height="81.9" transform="translate(-324.06 323.14) rotate(-25.63)"/><rect class="cls-5" x="506.65" y="768.5" width="55.27" height="1.48" transform="translate(-308.75 1177.26) rotate(-81.04)"/><rect class="cls-5" x="-53.27" y="750.29" width="118.72" height="1.11" transform="translate(-499.16 195.4) rotate(-41.83)"/><circle class="cls-5" cx="50.33" cy="711.26" r="3.03"/><circle class="cls-5" cx="9.86" cy="746.07" r="4.57"/><circle class="cls-5" cx="138.47" cy="674.68" r="3.52"/><circle class="cls-5" cx="144.4" cy="707.74" r="3.52"/><circle class="cls-5" cx="167.52" cy="722.34" r="4.27"/><circle class="cls-5" cx="232.18" cy="682.47" r="4.27"/><rect class="cls-5" x="241.43" y="578.79" width="1.48" height="208.04" transform="matrix(0.08, -1, 1, 0.08, -457.47, 870.9)"/><rect class="cls-5" x="332.75" y="610.95" width="1.48" height="69.16" transform="translate(-294.79 280.57) rotate(-32.53)"/><rect class="cls-5" x="317.91" y="751.62" width="77.31" height="1.48" transform="translate(-446.19 973.2) rotate(-80.02)"/><rect class="cls-5" x="276.51" y="891.08" width="112.75" height="1.48" transform="translate(-611.62 1010.42) rotate(-76.69)"/><rect class="cls-5" x="446.15" y="679.91" width="1.48" height="152.96" transform="translate(-420.56 617.21) rotate(-50.31)"/><rect class="cls-5" x="597.68" y="777.23" width="1.48" height="114.64" transform="translate(-376.15 1158.28) rotate(-72.73)"/><rect class="cls-5" x="597.63" y="898.32" width="65.26" height="1.48" transform="translate(-410.72 549.91) rotate(-36.43)"/><rect class="cls-5" x="755.47" y="733.31" width="72.52" height="1.48" transform="translate(-194.67 295.09) rotate(-18.85)"/><rect class="cls-5" x="854.74" y="733.81" width="1.48" height="123.59" transform="translate(-121.42 154.91) rotate(-9.66)"/><rect class="cls-5" x="803.67" y="754.97" width="1.48" height="129.98" transform="translate(-342.73 878.85) rotate(-48.49)"/><rect class="cls-5" x="773.54" y="807.78" width="1.48" height="144.4" transform="translate(-196.85 1536.31) rotate(-82.71)"/><rect class="cls-5" x="714.31" y="873.59" width="1.48" height="58.72" transform="translate(-427.1 754.3) rotate(-44.21)"/><rect class="cls-5" x="670.01" y="812.45" width="57.04" height="1.48" transform="translate(-346.04 1054.24) rotate(-62.33)"/><rect class="cls-5" x="562.42" y="997.7" width="183.31" height="1.48" transform="translate(-384.96 410.98) rotate(-27.29)"/><rect class="cls-5" x="612.37" y="939.46" width="115.91" height="1.48"/><rect class="cls-5" x="535.43" y="1000.01" width="59.55" height="1.48" transform="translate(-544.8 1298.82) rotate(-75.57)"/><rect class="cls-5" x="494.26" y="918.73" width="1.48" height="134.73" transform="translate(-486.62 482.29) rotate(-36.18)"/><rect class="cls-5" x="509.9" y="876.7" width="1.48" height="81.3" transform="translate(-501.99 1194.58) rotate(-76.21)"/><rect class="cls-5" x="446.03" y="857.01" width="72.83" height="1.48" transform="translate(-485.29 678.9) rotate(-50.17)"/><rect class="cls-5" x="437.05" y="751.33" width="1.48" height="128.04" transform="translate(-391.63 1225.85) rotate(-88.1)"/><rect class="cls-5" x="336.41" y="939.47" width="89.42" height="1.48" transform="translate(-409.47 304.43) rotate(-29.13)"/><rect class="cls-5" x="778.51" y="571.37" width="1.48" height="149.09" transform="translate(-222.35 791.58) rotate(-47.93)"/><rect class="cls-5" x="715.06" y="596.58" width="1.48" height="130.34" transform="translate(-77.1 94.66) rotate(-7.18)"/><rect class="cls-5" x="332.46" y="568.91" width="138.45" height="1.48" transform="translate(-91.73 77.31) rotate(-9.87)"/><rect class="cls-5" x="432.89" y="478.84" width="1.48" height="87.63" transform="translate(-220.09 706.64) rotate(-66.04)"/><rect class="cls-5" x="303.33" y="534.16" width="59.5" height="1.48" transform="translate(-291.17 448.99) rotate(-50.25)"/><rect class="cls-5" x="235.13" y="726.08" width="120.47" height="1.48" transform="translate(-216.79 132.5) rotate(-18.64)"/><polygon class="cls-5" points="207.35 900.97 312.66 828.42 311.82 827.2 206.51 899.74 207.35 900.97"/><rect class="cls-5" x="142.45" y="831.71" width="100.25" height="1.49" transform="translate(-660.16 778.49) rotate(-73.35)"/><rect class="cls-5" x="44.35" y="792.75" width="1.48" height="158.24" transform="translate(-764.36 544.79) rotate(-65.04)"/><circle class="cls-5" cx="117.17" cy="906.13" r="4.49"/><circle class="cls-5" cx="94.67" cy="973.8" r="4.49"/><circle class="cls-5" cx="206.29" cy="900.98" r="3.83"/><circle class="cls-5" cx="258.04" cy="864.86" r="4.96"/><circle class="cls-5" cx="154.51" cy="1012.93" r="4.49"/><circle class="cls-5" cx="250.15" cy="955.25" r="4.49"/><circle class="cls-5" cx="157.48" cy="973.8" r="3.62"/><circle class="cls-5" cx="212.63" cy="948.67" r="3.62"/><circle class="cls-5" cx="228.51" cy="885.7" r="3.62"/><rect class="cls-5" x="114.78" y="1016.12" width="78.81" height="1.11" transform="translate(-871.82 1085.33) rotate(-85.2)"/><rect class="cls-5" x="80.45" y="977.56" width="15.53" height="1.11" transform="translate(-529.47 214.6) rotate(-33.82)"/><rect class="cls-5" x="249.55" y="917.39" width="1.48" height="76.64" transform="translate(-735.13 1026.18) rotate(-79.41)"/><rect class="cls-5" x="104.27" y="1006.92" width="1.48" height="71.71" transform="translate(-746.22 431.38) rotate(-48.56)"/><path class="cls-5" d="M310.73,823.46a13.24,13.24,0,0,1,14.74-13.19,18,18,0,0,1,34.19-10.41,11.88,11.88,0,0,1,16.19,11.09c0,.39,0,.78-.06,1.16a12.33,12.33,0,0,1-1,24.62H322.63v-.07A13.27,13.27,0,0,1,310.73,823.46Z"/><path class="cls-5" d="M669.7,589.7A10.12,10.12,0,0,1,681,579.61a13.73,13.73,0,0,1,26.14-8,9.08,9.08,0,0,1,12.38,8.48c0,.3,0,.6,0,.89a9.43,9.43,0,0,1-.75,18.83H678.8v-.05A10.15,10.15,0,0,1,669.7,589.7Z"/><path class="cls-5" d="M343.43,504.22a9.2,9.2,0,0,1,10.25-9.16,12.48,12.48,0,0,1,23.76-7.24,8.25,8.25,0,0,1,11.25,7.7c0,.27,0,.54,0,.81a8.57,8.57,0,0,1-.68,17.11H351.69v0A9.22,9.22,0,0,1,343.43,504.22Z"/><path class="cls-5" d="M525.12,1049.43a9.72,9.72,0,0,1,10.82-9.68,13.18,13.18,0,0,1,25.09-7.64,8.72,8.72,0,0,1,11.88,8.14c0,.29,0,.57,0,.85a9.05,9.05,0,0,1-.72,18.07h-38.3v-.05A9.74,9.74,0,0,1,525.12,1049.43Z"/><path class="cls-5" d="M870.16,1081.55a17.67,17.67,0,0,1,19.68-17.6,24,24,0,0,1,45.63-13.9,15.85,15.85,0,0,1,21.61,14.8c0,.52,0,1-.08,1.55a16.46,16.46,0,0,1-1.31,32.87H886l0-.09A17.72,17.72,0,0,1,870.16,1081.55Z"/><circle class="cls-5" cx="845.34" cy="708.7" r="4.82"/><path class="cls-5" d="M838.22,714.43a9.14,9.14,0,0,0,14.25,0,11.35,11.35,0,0,1,4.25,8.86H834A11.35,11.35,0,0,1,838.22,714.43Z"/><circle class="cls-5" cx="522.74" cy="812.61" r="4.82"/><path class="cls-5" d="M515.61,818.34a9.14,9.14,0,0,0,14.25,0,11.35,11.35,0,0,1,4.25,8.86H511.36A11.35,11.35,0,0,1,515.61,818.34Z"/><circle class="cls-5" cx="150.14" cy="1072.1" r="4.82"/><path class="cls-5" d="M143,1077.83a9.14,9.14,0,0,0,14.25,0,11.35,11.35,0,0,1,4.25,8.86H138.77A11.35,11.35,0,0,1,143,1077.83Z"/><circle class="cls-5" cx="750.04" cy="935.61" r="4.82"/><path class="cls-5" d="M742.92,941.34a9.14,9.14,0,0,0,14.25,0,11.35,11.35,0,0,1,4.25,8.86H738.67A11.35,11.35,0,0,1,742.92,941.34Z"/><circle class="cls-5" cx="870.74" cy="875.89" r="5.94"/><path class="cls-5" d="M862,883a11.26,11.26,0,0,0,17.57,0,14,14,0,0,1,5.24,10.92h-28A14,14,0,0,1,862,883Z"/><circle class="cls-5" cx="675" cy="855.89" r="5.94"/><path class="cls-5" d="M666.22,863a11.26,11.26,0,0,0,17.57,0A14,14,0,0,1,689,873.87H661A14,14,0,0,1,666.22,863Z"/><circle class="cls-5" cx="496.34" cy="548.08" r="5.94"/><path class="cls-5" d="M487.56,555.14a11.26,11.26,0,0,0,17.57,0,14,14,0,0,1,5.24,10.92h-28A14,14,0,0,1,487.56,555.14Z"/><circle class="cls-5" cx="370.23" cy="684.92" r="5.94"/><path class="cls-5" d="M361.44,692A11.26,11.26,0,0,0,379,692a14,14,0,0,1,5.24,10.92h-28A14,14,0,0,1,361.44,692Z"/><circle class="cls-5" cx="215.77" cy="753.63" r="5.94"/><path class="cls-5" d="M207,760.7a11.26,11.26,0,0,0,17.57,0,14,14,0,0,1,5.24,10.92h-28A14,14,0,0,1,207,760.7Z"/><circle class="cls-5" cx="314.25" cy="972.26" r="5.94"/><path class="cls-5" d="M305.47,979.33a11.26,11.26,0,0,0,17.57,0,14,14,0,0,1,5.24,10.92h-28A14,14,0,0,1,305.47,979.33Z"/><circle class="cls-5" cx="60.86" cy="992.43" r="5.94"/><path class="cls-5" d="M52.08,999.49a11.26,11.26,0,0,0,17.57,0,14,14,0,0,1,5.24,10.92h-28A14,14,0,0,1,52.08,999.49Z"/><circle class="cls-5" cx="445.09" cy="901.67" r="5.94"/><path class="cls-5" d="M436.3,908.73a11.26,11.26,0,0,0,17.57,0,14,14,0,0,1,5.24,10.92h-28A14,14,0,0,1,436.3,908.73Z"/><circle class="cls-5" cx="736.7" cy="751.77" r="6"/><path class="cls-5" d="M727.83,758.9a11.37,11.37,0,0,0,17.74,0,14.12,14.12,0,0,1,5.29,11H722.55A14.12,14.12,0,0,1,727.83,758.9Z"/><circle class="cls-5" cx="714.76" cy="757.79" r="4.01"/><path class="cls-5" d="M708.83,762.56a7.6,7.6,0,0,0,11.85,0,9.44,9.44,0,0,1,3.53,7.37H705.3A9.44,9.44,0,0,1,708.83,762.56Z"/><circle class="cls-5" cx="104.67" cy="663.59" r="6"/><path class="cls-5" d="M95.8,670.72a11.37,11.37,0,0,0,17.74,0,14.12,14.12,0,0,1,5.29,11H90.51A14.12,14.12,0,0,1,95.8,670.72Z"/><circle class="cls-5" cx="82.72" cy="669.61" r="4.01"/><path class="cls-5" d="M76.79,674.38a7.6,7.6,0,0,0,11.85,0,9.44,9.44,0,0,1,3.53,7.37H73.26A9.44,9.44,0,0,1,76.79,674.38Z"/><circle class="cls-5" cx="310.02" cy="581.19" r="6"/><path class="cls-5" d="M301.15,588.32a11.37,11.37,0,0,0,17.74,0,14.12,14.12,0,0,1,5.29,11H295.86A14.12,14.12,0,0,1,301.15,588.32Z"/><circle class="cls-5" cx="288.08" cy="587.22" r="4.01"/><path class="cls-5" d="M282.15,592A7.6,7.6,0,0,0,294,592a9.44,9.44,0,0,1,3.53,7.37H278.62A9.44,9.44,0,0,1,282.15,592Z"/><circle class="cls-5" cx="549.27" cy="666.73" r="6"/><path class="cls-5" d="M540.4,673.87a11.37,11.37,0,0,0,17.74,0,14.12,14.12,0,0,1,5.29,11H535.12A14.12,14.12,0,0,1,540.4,673.87Z"/><circle class="cls-5" cx="527.33" cy="672.76" r="4.01"/><path class="cls-5" d="M521.4,677.52a7.6,7.6,0,0,0,11.85,0,9.44,9.44,0,0,1,3.53,7.37H517.87A9.44,9.44,0,0,1,521.4,677.52Z"/><circle class="cls-5" cx="570.91" cy="672.76" r="4.01"/><path class="cls-5" d="M565,677.52a7.6,7.6,0,0,0,11.85,0,9.44,9.44,0,0,1,3.53,7.37H561.45A9.44,9.44,0,0,1,565,677.52Z"/><circle class="cls-5" cx="588.47" cy="933.57" r="6"/><path class="cls-5" d="M579.6,940.7a11.37,11.37,0,0,0,17.74,0,14.12,14.12,0,0,1,5.29,11H574.32A14.12,14.12,0,0,1,579.6,940.7Z"/><circle class="cls-5" cx="566.53" cy="939.6" r="4.01"/><path class="cls-5" d="M560.6,944.36a7.6,7.6,0,0,0,11.85,0,9.44,9.44,0,0,1,3.53,7.37H557.07A9.44,9.44,0,0,1,560.6,944.36Z"/><rect class="cls-5" x="169.92" y="693.35" width="1.48" height="62.34" transform="translate(-531.64 477.89) rotate(-57.4)"/><path class="cls-5" d="M1614.66-40.41a57,57,0,0,1,56.89-56.89,57,57,0,0,1,56.89,56.89,57,57,0,0,1-56.89,56.89A57,57,0,0,1,1614.66-40.41Zm3.66,0a53.29,53.29,0,0,0,53.23,53.23,53.29,53.29,0,0,0,53.23-53.23,53.29,53.29,0,0,0-53.23-53.23A53.29,53.29,0,0,0,1618.32-40.41Z"/><path class="cls-5" d="M1606.54-40.41a65.08,65.08,0,0,1,65-65,65.08,65.08,0,0,1,65,65,65.08,65.08,0,0,1-65,65A65.08,65.08,0,0,1,1606.54-40.41Zm1.83,0a63.25,63.25,0,0,0,63.18,63.18,63.25,63.25,0,0,0,63.18-63.18,63.25,63.25,0,0,0-63.18-63.18A63.25,63.25,0,0,0,1608.37-40.41Z"/><path class="cls-5" d="M1418.4-18a31,31,0,0,1,31-31,31,31,0,0,1,31,31,31,31,0,0,1-31,31A31,31,0,0,1,1418.4-18Zm1.83,0a29.15,29.15,0,0,0,29.12,29.12A29.15,29.15,0,0,0,1478.47-18a29.16,29.16,0,0,0-29.12-29.12A29.16,29.16,0,0,0,1420.23-18Z"/><path class="cls-5" d="M1610.66,138a26.76,26.76,0,1,1,26.76,26.76A26.79,26.79,0,0,1,1610.66,138Zm1.83,0a24.93,24.93,0,1,0,24.93-24.93A25,25,0,0,0,1612.49,138Z"/><path class="cls-5" d="M1848.7,66.87a41.93,41.93,0,1,1,41.93,41.93A42,42,0,0,1,1848.7,66.87Zm3.66,0a38.27,38.27,0,1,0,38.27-38.27A38.31,38.31,0,0,0,1852.36,66.87Z"/><path class="cls-5" d="M1665.91,289.33a41.93,41.93,0,1,1,41.93,41.93A42,42,0,0,1,1665.91,289.33Zm3.66,0a38.27,38.27,0,1,0,38.27-38.27A38.31,38.31,0,0,0,1669.57,289.33Z"/><path class="cls-5" d="M2008.31,10.22a26.6,26.6,0,1,1,26.6,26.6A26.63,26.63,0,0,1,2008.31,10.22Zm1.83,0a24.77,24.77,0,1,0,24.77-24.77A24.79,24.79,0,0,0,2010.14,10.22Z"/><path class="cls-5" d="M2033.75,217.45a32.8,32.8,0,1,1,32.8,32.8A32.84,32.84,0,0,1,2033.75,217.45Zm1.83,0a31,31,0,1,0,31-31A31,31,0,0,0,2035.58,217.45Z"/><path class="cls-5" d="M1996,9.87a39.22,39.22,0,1,1,39.22,39.22A39.27,39.27,0,0,1,1996,9.87Zm1.37,0A37.85,37.85,0,1,0,2035.24-28,37.89,37.89,0,0,0,1997.39,9.87Z"/><path class="cls-5" d="M1794.29,194.18A32.84,32.84,0,1,1,1827.14,227,32.88,32.88,0,0,1,1794.29,194.18Zm1.37,0a31.47,31.47,0,1,0,31.47-31.47A31.51,31.51,0,0,0,1795.66,194.18Z"/><path class="cls-5" d="M1508.82,249.24a32.84,32.84,0,1,1,32.84,32.84A32.88,32.88,0,0,1,1508.82,249.24Zm1.37,0a31.47,31.47,0,1,0,31.47-31.47A31.51,31.51,0,0,0,1510.19,249.24Z"/><path class="cls-5" d="M1342.39,335.79a39.15,39.15,0,1,1,39.15,39.15A39.19,39.19,0,0,1,1342.39,335.79Zm1.37,0A37.77,37.77,0,1,0,1381.54,298,37.82,37.82,0,0,0,1343.76,335.79Z"/><path class="cls-5" d="M1707.84,346.76a57.43,57.43,0,0,0,9.07-114.14l-.21,1.35a56.06,56.06,0,1,1-40.92,9.37l-.79-1.13a57.43,57.43,0,0,0,32.85,104.53Z"/><path class="cls-5" d="M1890.2,289.33a27.52,27.52,0,1,1,27.52,27.52A27.56,27.56,0,0,1,1890.2,289.33Zm1.37,0a26.15,26.15,0,1,0,26.15-26.15A26.18,26.18,0,0,0,1891.57,289.33Z"/><path class="cls-5" d="M1225.53,66.68A33.34,33.34,0,1,1,1258.87,100,33.38,33.38,0,0,1,1225.53,66.68Zm1.83,0a31.51,31.51,0,1,0,31.52-31.51A31.55,31.55,0,0,0,1227.36,66.68Z"/><path class="cls-5" d="M1035,361.7A33.34,33.34,0,1,1,1068.34,395,33.38,33.38,0,0,1,1035,361.7Zm1.83,0a31.51,31.51,0,1,0,31.52-31.51A31.55,31.55,0,0,0,1036.82,361.7Z"/><path class="cls-5" d="M887.05,140.24A40.79,40.79,0,1,1,927.84,181,40.83,40.83,0,0,1,887.05,140.24Zm1.83,0a39,39,0,1,0,39-39A39,39,0,0,0,888.88,140.24Z"/><path class="cls-5" d="M1151.09,458a26.86,26.86,0,1,1,26.86,26.86A26.89,26.89,0,0,1,1151.09,458Zm1.83,0a25,25,0,1,0,25-25A25.06,25.06,0,0,0,1152.92,458Z"/><path class="cls-5" d="M1671.55,72.63a113.09,113.09,0,0,0,73-26.76l-.59-.7a112.17,112.17,0,0,1-72.44,26.54A112.25,112.25,0,0,1,1559.43-40.41a111.75,111.75,0,0,1,51.67-94.44l-.49-.77a112.66,112.66,0,0,0-52.09,95.21A113.16,113.16,0,0,0,1671.55,72.63Z"/><path class="cls-5" d="M1770.17,14.87a113.07,113.07,0,0,0,14.42-55.28,113.16,113.16,0,0,0-113-113,114,114,0,0,0-21.1,2l.17.9a113,113,0,0,1,20.93-2A112.25,112.25,0,0,1,1783.67-40.41a112.15,112.15,0,0,1-14.3,54.83Z"/><path class="cls-5" d="M1671.55,46a85.84,85.84,0,0,0,34.14-7l-.54-1.26a84.5,84.5,0,0,1-33.6,6.89,85.15,85.15,0,0,1-85.06-85.06h-1.37A86.53,86.53,0,0,0,1671.55,46Z"/><path class="cls-5" d="M1739.13,13.48A85.5,85.5,0,0,0,1758-40.41a86.21,86.21,0,0,0-5-29.15l-1.29.46a84.81,84.81,0,0,1,5,28.68,84.15,84.15,0,0,1-18.55,53Z"/><path class="cls-5" d="M1671.55,36.49a76.27,76.27,0,0,0,31.89-6.9l-.57-1.25a74.93,74.93,0,0,1-31.32,6.78A75.61,75.61,0,0,1,1596-40.41a75.61,75.61,0,0,1,75.53-75.53A75,75,0,0,1,1731.76-86l1.09-.83a76.37,76.37,0,0,0-61.31-30.47,77,77,0,0,0-76.9,76.9A77,77,0,0,0,1671.55,36.49Z"/><path class="cls-5" d="M1072.27-8.84h0a52.73,52.73,0,0,1,3.51-74.41,52.73,52.73,0,0,1,74.41,3.51,52.73,52.73,0,0,1-3.51,74.41,52.46,52.46,0,0,1-35.43,13.69A52.56,52.56,0,0,1,1072.27-8.84ZM1077-81.89a50.9,50.9,0,0,0-3.39,71.82h0a50.9,50.9,0,0,0,71.82,3.39A50.51,50.51,0,0,0,1162-41.89a50.51,50.51,0,0,0-13.18-36.61,50.51,50.51,0,0,0-35.21-16.57q-1.23-.06-2.45-.06A50.48,50.48,0,0,0,1077-81.89Z"/><path class="cls-5" d="M1111.33,42.15a85.8,85.8,0,0,0,58.07-22.51,85.86,85.86,0,0,0,20.54-28.16l-1.25-.57a84.51,84.51,0,0,1-20.21,27.71,84.42,84.42,0,0,1-61.25,22.05A84.5,84.5,0,0,1,1048.32,13l-1,.92A85.87,85.87,0,0,0,1107.16,42C1108.55,42.11,1109.95,42.15,1111.33,42.15Z"/><path class="cls-5" d="M1111.32,32.62a76.33,76.33,0,0,0,51.67-20A76.24,76.24,0,0,0,1181.93-14l-1.26-.54a74.89,74.89,0,0,1-18.6,26.09,75.05,75.05,0,0,1-54.39,19.58,75,75,0,0,1-52.31-24.61,75.62,75.62,0,0,1,5-106.69,75,75,0,0,1,64.68-18.39l.25-1.35a76.35,76.35,0,0,0-65.85,18.72,77,77,0,0,0-5.12,108.63,76.4,76.4,0,0,0,53.26,25.06C1108.85,32.59,1110.09,32.62,1111.32,32.62Z"/><path class="cls-5" d="M1192.29,318.91a41.64,41.64,0,0,1-29-13.66h0A41.92,41.92,0,1,1,1194.31,319C1193.64,319,1193,318.95,1192.29,318.91Zm-23.78-70.18a38.27,38.27,0,1,0,27.55-9.92c-.62,0-1.23,0-1.84,0A38,38,0,0,0,1168.51,248.74Z"/><path class="cls-5" d="M1191.69,331.61a54.53,54.53,0,1,1,2.63.06C1193.45,331.67,1192.57,331.65,1191.69,331.61Zm-33-93.62a52.8,52.8,0,1,0,38-13.69q-1.28-.06-2.54-.06A52.42,52.42,0,0,0,1158.73,238Z"/><path class="cls-5" d="M1194.26,379.7A100.27,100.27,0,0,0,1285.35,321l-1.25-.57a98.8,98.8,0,0,1-163,25.6l-1,.92a99.5,99.5,0,0,0,69.36,32.64Q1191.85,379.7,1194.26,379.7Z"/><path class="cls-5" d="M1102.06,319l1.26-.54A98.81,98.81,0,0,1,1193,180.77V179.4a100.18,100.18,0,0,0-90.9,139.6Z"/><path class="cls-5" d="M1292.72,273.11l1.37-.09a100.31,100.31,0,0,0-52.92-81.93l-.64,1.21a98.94,98.94,0,0,1,52.19,80.81Z"/><path class="cls-5" d="M1255.72,257.57l1.31-.41a66.07,66.07,0,0,0-31.87-38.26l-.64,1.21a64.69,64.69,0,0,1,31.2,37.47Z"/><path class="cls-5" d="M1194.29,342.83A65.82,65.82,0,0,0,1254.78,303l-1.26-.54a64.46,64.46,0,1,1-47.43-88.77l.25-1.35a65.82,65.82,0,1,0-12,130.51Z"/><circle class="cls-5" cx="1749.63" cy="-2.25" r="4.72"/><circle class="cls-5" cx="1656.97" cy="44.84" r="4.72"/><circle class="cls-5" cx="1802.39" cy="25.69" r="5.5"/><circle class="cls-5" cx="1651.96" cy="79.1" r="5.61"/><rect class="cls-5" x="1801.24" y="-34.91" width="1.83" height="117.13" transform="translate(984.86 1630) rotate(-63.79)"/><rect class="cls-5" x="1668.2" y="157.03" width="1.37" height="101" transform="translate(74.44 742.31) rotate(-25.63)"/><rect class="cls-5" x="1617.58" y="77.59" width="68.16" height="1.83" transform="translate(1316.98 1697.81) rotate(-81.04)"/><rect class="cls-5" x="927.12" y="55.14" width="146.4" height="1.37" transform="translate(217.68 681.3) rotate(-41.83)"/><circle class="cls-5" cx="1054.86" cy="7.01" r="3.73"/><circle class="cls-5" cx="1004.96" cy="49.94" r="5.63"/><circle class="cls-5" cx="1170.87" cy="2.66" r="4.35"/><circle class="cls-5" cx="1199.38" cy="20.67" r="5.26"/><rect class="cls-5" x="1384.83" y="56.77" width="95.34" height="1.83" transform="translate(1127.53 1458.54) rotate(-80.02)"/><rect class="cls-5" x="1333.78" y="228.76" width="139.04" height="1.83" transform="translate(856.68 1542.38) rotate(-76.69)"/><rect class="cls-5" x="1542.97" y="-31.65" width="1.83" height="188.63" transform="translate(509.67 1210.66) rotate(-50.31)"/><rect class="cls-5" x="1729.83" y="88.36" width="1.83" height="141.37" transform="translate(1065.13 1764.58) rotate(-72.73)"/><rect class="cls-5" x="1729.77" y="237.69" width="80.48" height="1.83" transform="translate(204.15 1097.64) rotate(-36.43)"/><rect class="cls-5" x="1924.41" y="34.2" width="89.43" height="1.83" transform="translate(94.22 637.94) rotate(-18.85)"/><rect class="cls-5" x="2046.83" y="34.82" width="1.83" height="152.4" transform="translate(10.43 345.35) rotate(-9.66)"/><rect class="cls-5" x="1983.85" y="60.91" width="1.83" height="160.28" transform="translate(563.67 1533.78) rotate(-48.49)"/><rect class="cls-5" x="1946.7" y="126.03" width="1.83" height="178.07" transform="matrix(0.13, -0.99, 0.99, 0.13, 1487.1, 2119.63)"/><rect class="cls-5" x="1873.66" y="207.18" width="1.83" height="72.42" transform="translate(361.16 1376.02) rotate(-44.21)"/><rect class="cls-5" x="1819.02" y="131.8" width="70.34" height="1.83" transform="translate(875.66 1713.25) rotate(-62.33)"/><rect class="cls-5" x="1686.36" y="360.24" width="226.05" height="1.83" transform="translate(34.67 865.14) rotate(-27.29)"/><rect class="cls-5" x="1747.94" y="288.42" width="142.94" height="1.83"/><rect class="cls-5" x="1653.07" y="363.08" width="73.44" height="1.83" transform="translate(916.29 1909.82) rotate(-75.57)"/><rect class="cls-5" x="1602.3" y="262.85" width="1.83" height="166.14" transform="matrix(0.81, -0.59, 0.59, 0.81, 104.9, 1013)"/><rect class="cls-5" x="1621.59" y="211.02" width="1.83" height="100.25" transform="translate(982.09 1774.62) rotate(-76.21)"/><rect class="cls-5" x="1542.83" y="186.74" width="89.81" height="1.83" transform="translate(426.72 1286.82) rotate(-50.17)"/><rect class="cls-5" x="1531.76" y="56.42" width="1.83" height="157.89" transform="translate(1346.52 1662.7) rotate(-88.1)"/><rect class="cls-5" x="1407.65" y="288.42" width="110.27" height="1.83" transform="translate(44.16 748.64) rotate(-29.13)"/><rect class="cls-5" x="1874.58" y="-134.4" width="1.83" height="160.72" transform="translate(21.46 234.01) rotate(-7.18)"/><rect class="cls-5" x="1282.75" y="25.29" width="148.55" height="1.83" transform="translate(62.79 435.04) rotate(-18.64)"/><polygon class="cls-5" points="1248.5 240.94 1378.36 151.48 1377.32 149.98 1247.46 239.44 1248.5 240.94"/><rect class="cls-5" x="1168.46" y="155.54" width="123.62" height="1.83" transform="translate(727.94 1290.35) rotate(-73.35)"/><rect class="cls-5" x="1047.49" y="107.5" width="1.83" height="195.13" transform="translate(420.04 1068.98) rotate(-65.04)"/><circle class="cls-5" cx="1137.29" cy="247.31" r="5.53"/><circle class="cls-5" cx="1109.54" cy="330.76" r="5.53"/><circle class="cls-5" cx="1247.19" cy="240.97" r="4.72"/><circle class="cls-5" cx="1311" cy="196.42" r="6.12"/><circle class="cls-5" cx="1183.34" cy="379.01" r="5.53"/><circle class="cls-5" cx="1301.27" cy="307.88" r="5.53"/><circle class="cls-5" cx="1187" cy="330.76" r="4.46"/><circle class="cls-5" cx="1255.01" cy="299.77" r="4.46"/><circle class="cls-5" cx="1274.59" cy="222.12" r="4.46"/><rect class="cls-5" x="1134.34" y="382.95" width="97.18" height="1.37" transform="matrix(0.08, -1, 1, 0.08, 701.75, 1530.36)"/><rect class="cls-5" x="1092.01" y="335.4" width="19.16" height="1.37" transform="translate(-0.67 669.98) rotate(-33.82)"/><rect class="cls-5" x="1300.54" y="261.2" width="1.83" height="94.5" transform="matrix(0.18, -0.98, 0.98, 0.18, 759.18, 1531.09)"/><rect class="cls-5" x="1121.38" y="371.6" width="1.83" height="88.43" transform="translate(67.82 981.97) rotate(-48.56)"/><path class="cls-5" d="M1376,145.37a16.32,16.32,0,0,1,18.18-16.26,22.14,22.14,0,0,1,42.16-12.84,14.64,14.64,0,0,1,20,13.67c0,.48,0,1-.07,1.43a15.21,15.21,0,0,1-1.21,30.37h-64.36v-.09A16.37,16.37,0,0,1,1376,145.37Z"/><path class="cls-5" d="M1640.36,424a12,12,0,0,1,13.35-11.93,16.25,16.25,0,0,1,30.94-9.43,10.75,10.75,0,0,1,14.65,10c0,.36,0,.71-.05,1.05a11.16,11.16,0,0,1-.89,22.29h-47.24V436A12,12,0,0,1,1640.36,424Z"/><circle class="cls-5" cx="2035.24" cy="3.85" r="5.95"/><path class="cls-5" d="M2026.45,10.92a11.27,11.27,0,0,0,17.58,0,14,14,0,0,1,5.24,10.92h-28.05A14,14,0,0,1,2026.45,10.92Z"/><circle class="cls-5" cx="1637.42" cy="131.99" r="5.95"/><path class="cls-5" d="M1628.63,139.06a11.27,11.27,0,0,0,17.58,0,14,14,0,0,1,5.24,10.92h-28.05A14,14,0,0,1,1628.63,139.06Z"/><circle class="cls-5" cx="1177.95" cy="451.98" r="5.95"/><path class="cls-5" d="M1169.16,459a11.27,11.27,0,0,0,17.58,0A14,14,0,0,1,1192,470h-28.05A14,14,0,0,1,1169.16,459Z"/><circle class="cls-5" cx="1917.72" cy="283.66" r="5.95"/><path class="cls-5" d="M1908.93,290.73a11.27,11.27,0,0,0,17.58,0,14,14,0,0,1,5.24,10.92h-28.05A14,14,0,0,1,1908.93,290.73Z"/><circle class="cls-5" cx="1825.18" cy="185.36" r="7.33"/><path class="cls-5" d="M1814.35,194.07a13.89,13.89,0,0,0,21.66,0,17.25,17.25,0,0,1,6.46,13.46h-34.57A17.25,17.25,0,0,1,1814.35,194.07Z"/><circle class="cls-5" cx="1258.87" cy="59.26" r="7.33"/><path class="cls-5" d="M1248,68a13.89,13.89,0,0,0,21.66,0,17.25,17.25,0,0,1,6.46,13.46h-34.57A17.25,17.25,0,0,1,1248,68Z"/><circle class="cls-5" cx="1380.32" cy="328.87" r="7.33"/><path class="cls-5" d="M1369.49,337.58a13.89,13.89,0,0,0,21.66,0,17.25,17.25,0,0,1,6.46,13.46H1363A17.25,17.25,0,0,1,1369.49,337.58Z"/><circle class="cls-5" cx="1067.85" cy="353.73" r="7.33"/><path class="cls-5" d="M1057,362.44a13.89,13.89,0,0,0,21.66,0,17.25,17.25,0,0,1,6.46,13.46h-34.57A17.25,17.25,0,0,1,1057,362.44Z"/><circle class="cls-5" cx="1541.66" cy="241.81" r="7.33"/><path class="cls-5" d="M1530.83,250.52a13.89,13.89,0,0,0,21.66,0,17.25,17.25,0,0,1,6.46,13.46h-34.57A17.25,17.25,0,0,1,1530.83,250.52Z"/><circle class="cls-5" cx="1901.27" cy="56.96" r="7.4"/><path class="cls-5" d="M1890.33,65.75a14,14,0,0,0,21.88,0,17.42,17.42,0,0,1,6.52,13.6h-34.91A17.42,17.42,0,0,1,1890.33,65.75Z"/><circle class="cls-5" cx="1874.21" cy="64.39" r="4.94"/><path class="cls-5" d="M1866.9,70.27a9.37,9.37,0,0,0,14.62,0,11.64,11.64,0,0,1,4.36,9.08h-23.33A11.64,11.64,0,0,1,1866.9,70.27Z"/><circle class="cls-5" cx="937.56" cy="131.98" r="7.4"/><path class="cls-5" d="M926.62,140.78a14,14,0,0,0,21.88,0,17.42,17.42,0,0,1,6.52,13.6H920.1A17.42,17.42,0,0,1,926.62,140.78Z"/><circle class="cls-5" cx="910.49" cy="139.42" r="4.94"/><path class="cls-5" d="M903.19,145.29a9.37,9.37,0,0,0,14.62,0,11.64,11.64,0,0,1,4.36,9.08H898.83A11.64,11.64,0,0,1,903.19,145.29Z"/><circle class="cls-5" cx="1718.48" cy="281.15" r="7.4"/><path class="cls-5" d="M1707.54,289.95a14,14,0,0,0,21.88,0,17.42,17.42,0,0,1,6.52,13.6H1701A17.42,17.42,0,0,1,1707.54,289.95Z"/><circle class="cls-5" cx="1691.42" cy="288.58" r="4.94"/><path class="cls-5" d="M1684.11,294.46a9.37,9.37,0,0,0,14.62,0,11.64,11.64,0,0,1,4.36,9.08h-23.33A11.64,11.64,0,0,1,1684.11,294.46Z"/><rect class="cls-5" x="1202.34" y="-15.07" width="1.83" height="76.87" transform="matrix(0.54, -0.84, 0.84, 0.54, 535.22, 1024.41)"/><line class="cls-6" x1="683.46" y1="40.13" x2="999.32" y2="49.94"/><line class="cls-6" x1="866.45" y1="328.2" x2="1093.25" y2="293.39"/><line class="cls-6" x1="919.22" y1="179.28" x2="854.82" y2="314.4"/><polyline class="cls-6" points="289.55 462.4 288.07 557.05 147.88 622.49 263.84 448.29 140.9 509.69"/><line class="cls-6" x1="698.92" y1="569.65" x2="722.59" y2="415.5"/><polyline class="cls-6" points="707.12 571.65 842.79 361.34 1060.53 395.51 705.3 582.25"/><polyline class="cls-6" points="708.49 585.88 1144.9 547.63 1068.34 393.22"/><line class="cls-6" x1="868.45" y1="691.76" x2="1124.81" y2="549.55"/><polyline class="cls-6" points="750.04 961.41 921.16 1082.26 1070.79 978.12"/><polyline class="cls-6" points="870.74 907.03 910.42 1059.17 952.15 920.18"/><polyline class="cls-6" points="1898.43 574.64 1917.72 315.49 1653.73 536.95"/></g></g></svg>