<?xml version="1.0" standalone="no"?><!DOCTYPE svg PUBLIC "-//W3C//DTD SVG 1.1//EN" "http://www.w3.org/Graphics/SVG/1.1/DTD/svg11.dtd"><svg t="1617676999185" class="icon" viewBox="0 0 1026 1024" version="1.1" xmlns="http://www.w3.org/2000/svg" p-id="3553" xmlns:xlink="http://www.w3.org/1999/xlink" width="200.390625" height="200"><defs><style type="text/css"></style></defs><path d="M463.062165 486.183744H486.188264V245.242061A243.092948 243.092948 0 1 0 245.246581 486.183744zM2.153634 780.907052a243.092948 243.092948 0 0 0 484.03463 0V539.96537H245.246581A243.092948 243.092948 0 0 0 2.153634 780.907052zM1024.00452 245.242061a243.092948 243.092948 0 0 0-484.03463 0V486.183744h243.092947A243.092948 243.092948 0 0 0 1024.00452 245.242061zM1024.00452 780.907052A243.092948 243.092948 0 0 0 780.911572 539.96537H539.96989v243.092947a243.092948 243.092948 0 0 0 484.03463 0z" p-id="3554" fill="#1296db"></path></svg>