<?xml version="1.0" standalone="no"?><!DOCTYPE svg PUBLIC "-//W3C//DTD SVG 1.1//EN" "http://www.w3.org/Graphics/SVG/1.1/DTD/svg11.dtd"><svg t="1617674408968" class="icon" viewBox="0 0 1024 1024" version="1.1" xmlns="http://www.w3.org/2000/svg" p-id="1273" xmlns:xlink="http://www.w3.org/1999/xlink" width="200" height="200"><defs><style type="text/css"></style></defs><path d="M461.019429 711.606857L342.162286 611.84a27.574857 27.574857 0 0 0-35.401143 42.276571l159.890286 134.144 5.705142-6.802285 0.292572 0.292571 229.668571-258.194286a24.795429 24.795429 0 0 0-3.291428-35.986285 28.379429 28.379429 0 0 0-38.473143 3.291428L461.019429 711.68zM0 318.098286h1024v514.633143a146.285714 146.285714 0 0 1-146.285714 146.285714H146.285714a146.285714 146.285714 0 0 1-146.285714-146.285714V318.025143z m0-94.134857c0-55.515429 45.860571-100.571429 102.4-100.571429h107.52a76.068571 76.068571 0 0 1 143.36 0h317.44a76.068571 76.068571 0 0 1 143.36 0h107.52c56.539429 0 102.4 45.056 102.4 100.571429v50.322285H0v-50.322285z m716.8 0h51.2V123.392h-51.2v100.571429z m-460.8 0h51.2V123.392h-51.2v100.571429z" p-id="1274" fill="#1296db"></path></svg>