<?xml version="1.0" standalone="no"?><!DOCTYPE svg PUBLIC "-//W3C//DTD SVG 1.1//EN" "http://www.w3.org/Graphics/SVG/1.1/DTD/svg11.dtd"><svg t="1617674338284" class="icon" viewBox="0 0 1024 1024" version="1.1" xmlns="http://www.w3.org/2000/svg" p-id="8724" xmlns:xlink="http://www.w3.org/1999/xlink" width="200" height="200"><defs><style type="text/css"></style></defs><path d="M507.693176 999.544471C384.752941 999.544471 117.458824 734.238118 90.352941 555.956706h58.654118c26.112 152.666353 259.553882 372.781176 358.686117 372.781176 99.117176 0 333.161412-225.701647 357.76753-378.368 6.023529 3.011765 9.833412 2.710588 16.865882 2.710589l43.098353 2.876235c-27.105882 178.281412-294.806588 443.587765-417.731765 443.587765zM925.515294 556.167529h-42.691765c-6.023529 0-11.550118 1.008941-17.573647 3.011765V199.544471c-168.237176 0-266.661647-49.709176-357.556706-121.524706-91.407059 71.815529-189.831529 121.524706-358.068705 121.524706l-0.602353 356.623058H90.383059V311.296v-142.878118c0-10.541176 8.538353-19.079529 19.079529-19.57647 172.754824-3.523765 281.238588-53.76 378.654118-126.057412 12.047059-9.035294 28.129882-9.035294 39.68 0 97.430588 72.809412 205.402353 123.030588 378.654118 126.042353 10.541176 0 19.079529 9.035294 19.079529 19.576471v387.764705z" p-id="8725" fill="#26b90c"></path><path d="M506.187294 146.823529c75.821176 59.753412 157.680941 100.939294 297.788235 100.939295v261.647058c0 124.536471-157.680941 344.500706-297.788235 344.500706-140.122353 0-297.803294-219.964235-297.803294-344.500706V247.762824c140.107294 0 221.967059-41.185882 297.803294-100.939295z m13.101177 197.797647c-39.152941 0-71.318588 12.528941-95.096471 37.571765C400.414118 407.235765 388.517647 439.235765 388.517647 478.870588c0 37.571765 11.896471 68.171294 35.659294 91.828706 23.070118 23.642353 53.835294 35.478588 91.587765 35.478588 13.296941 0 25.871059-2.078118 37.767529-4.864l34.95153 34.078118h82.522353l-66.43953-61.906824 4.201412-4.171294c23.777882-25.042824 35.659294-56.350118 35.659294-96 0-37.571765-11.188706-68.186353-34.258823-92.53647s-53.157647-36.171294-90.895059-36.171294z m-1.355295 49.844706c22.211765 0 39.424 7.559529 51.606589 22.66353 12.197647 15.104 17.92 35.704471 17.92 61.801412 0 25.404235-6.445176 45.327059-18.627765 59.738352-12.197647 14.411294-30.117647 21.970824-52.344471 21.970824-21.504 0-38.701176-8.237176-51.621647-23.341176-12.197647-15.811765-18.642824-35.704471-18.642823-59.738353 0-24.726588 5.737412-43.956706 18.642823-59.738353 12.905412-15.796706 30.825412-23.341176 53.052236-23.341177z" p-id="8726" fill="#26b90c"></path></svg>